<svg width="32" height="24" viewBox="0 0 32 24" fill="none" xmlns="http://www.w3.org/2000/svg">
<path d="M30.25 0.875C30.4821 0.875 30.7046 0.967187 30.8687 1.13128C31.0328 1.29538 31.125 1.51794 31.125 1.75V8.75C31.125 8.98206 31.0328 9.20462 30.8687 9.36872C30.7046 9.53281 30.4821 9.625 30.25 9.625H21.8623C21.3982 9.6251 20.9531 9.80954 20.625 10.1378L18.875 11.8878V1.75C18.875 1.51794 18.9672 1.29538 19.1313 1.13128C19.2954 0.967187 19.5179 0.875 19.75 0.875H30.25ZM19.75 0C19.2859 0 18.8408 0.184375 18.5126 0.512563C18.1844 0.840752 18 1.28587 18 1.75V12.9439C18 13.0304 18.0257 13.1151 18.0738 13.187C18.122 13.259 18.1904 13.315 18.2704 13.3481C18.3504 13.3812 18.4384 13.3898 18.5233 13.3728C18.6082 13.3558 18.6861 13.314 18.7472 13.2527L21.2436 10.7564C21.4077 10.5923 21.6302 10.5 21.8623 10.5H30.25C30.7141 10.5 31.1592 10.3156 31.4874 9.98744C31.8156 9.65925 32 9.21413 32 8.75V1.75C32 1.28587 31.8156 0.840752 31.4874 0.512563C31.1592 0.184375 30.7141 0 30.25 0L19.75 0Z" fill="#323130"/>
<path d="M9 15C10.1935 15 11.3381 14.5259 12.182 13.682C13.0259 12.8381 13.5 11.6935 13.5 10.5C13.5 9.30653 13.0259 8.16193 12.182 7.31802C11.3381 6.47411 10.1935 6 9 6C7.80653 6 6.66193 6.47411 5.81802 7.31802C4.97411 8.16193 4.5 9.30653 4.5 10.5C4.5 11.6935 4.97411 12.8381 5.81802 13.682C6.66193 14.5259 7.80653 15 9 15ZM12 10.5C12 11.2956 11.6839 12.0587 11.1213 12.6213C10.5587 13.1839 9.79565 13.5 9 13.5C8.20435 13.5 7.44129 13.1839 6.87868 12.6213C6.31607 12.0587 6 11.2956 6 10.5C6 9.70435 6.31607 8.94129 6.87868 8.37868C7.44129 7.81607 8.20435 7.5 9 7.5C9.79565 7.5 10.5587 7.81607 11.1213 8.37868C11.6839 8.94129 12 9.70435 12 10.5ZM18 22.5C18 24 16.5 24 16.5 24H1.5C1.5 24 0 24 0 22.5C0 21 1.5 16.5 9 16.5C16.5 16.5 18 21 18 22.5ZM16.5 22.494C16.4985 22.125 16.269 21.015 15.252 19.998C14.274 19.02 12.4335 18 9 18C5.565 18 3.726 19.02 2.748 19.998C1.731 21.015 1.503 22.125 1.5 22.494H16.5Z" fill="#323130"/>
</svg>
