<svg width="20" height="20" viewBox="0 0 20 20" fill="none" xmlns="http://www.w3.org/2000/svg">
<circle cx="10" cy="10" r="10" fill="#a8b5b6"/>
<path d="M10 10C10.6962 10 11.3639 9.72344 11.8562 9.23116C12.3484 8.73887 12.625 8.07119 12.625 7.375C12.625 6.67881 12.3484 6.01113 11.8562 5.51884C11.3639 5.02656 10.6962 4.75 10 4.75C9.30381 4.75 8.63613 5.02656 8.14385 5.51884C7.65156 6.01113 7.375 6.67881 7.375 7.375C7.375 8.07119 7.65156 8.73887 8.14385 9.23116C8.63613 9.72344 9.30381 10 10 10ZM11.75 7.375C11.75 7.83913 11.5656 8.28425 11.2374 8.61244C10.9092 8.94063 10.4641 9.125 10 9.125C9.53587 9.125 9.09075 8.94063 8.76256 8.61244C8.43438 8.28425 8.25 7.83913 8.25 7.375C8.25 6.91087 8.43438 6.46575 8.76256 6.13756C9.09075 5.80937 9.53587 5.625 10 5.625C10.4641 5.625 10.9092 5.80937 11.2374 6.13756C11.5656 6.46575 11.75 6.91087 11.75 7.375ZM15.25 14.375C15.25 15.25 14.375 15.25 14.375 15.25H5.625C5.625 15.25 4.75 15.25 4.75 14.375C4.75 13.5 5.625 10.875 10 10.875C14.375 10.875 15.25 13.5 15.25 14.375ZM14.375 14.3715C14.3741 14.1562 14.2403 13.5087 13.647 12.9155C13.0765 12.345 12.0029 11.75 10 11.75C7.99625 11.75 6.9235 12.345 6.353 12.9155C5.75975 13.5087 5.62675 14.1562 5.625 14.3715H14.375Z" fill="white"/>
</svg>
