<svg width="470" height="437" viewBox="0 0 470 437" fill="none" xmlns="http://www.w3.org/2000/svg">
<g clip-path="url(#clip0_201_722)">
<path fill-rule="evenodd" clip-rule="evenodd" d="M414.431 286H431C452.502 286 470 268.502 470 247V39C470 17.498 452.502 0 431 0H119C97.498 0 80 17.498 80 39V52.5781H106V39C106 31.837 111.824 26 119 26H431C438.176 26 444 31.837 444 39V247C444 254.163 438.176 260 431 260H414.431V286Z" fill="#323130"/>
<path d="M91 437C89.089 437 87.165 436.571 85.358 435.713C80.873 433.542 78 429.005 78 424V359H39C17.498 359 0 341.502 0 320V112C0 90.498 17.498 73 39 73H351C372.502 73 390 90.498 390 112V320C390 341.502 372.502 359 351 359H193.063L99.125 434.153C96.772 436.038 93.899 437 91 437ZM39 99C31.824 99 26 104.837 26 112V320C26 327.163 31.824 333 39 333H91C98.189 333 104 338.811 104 346V396.96L180.375 335.847C182.689 334.001 185.536 333 188.5 333H351C358.176 333 364 327.163 364 320V112C364 104.837 358.176 99 351 99H39Z" fill="#323130"/>
<path d="M299 203H91C83.811 203 78 197.176 78 190C78 182.824 83.811 177 91 177H299C306.189 177 312 182.824 312 190C312 197.176 306.189 203 299 203Z" fill="#323130"/>
<path d="M195 268H91C83.811 268 78 262.176 78 255C78 247.824 83.811 242 91 242H195C202.189 242 208 247.824 208 255C208 262.176 202.189 268 195 268Z" fill="#323130"/>
</g>
<defs>
<clipPath id="clip0_201_722">
<rect width="470" height="437" fill="white"/>
</clipPath>
</defs>
</svg>
