<svg width="56" height="56" viewBox="0 0 56 56" fill="none" xmlns="http://www.w3.org/2000/svg">
<path d="M23.9874 25.0126C23.304 24.3291 22.196 24.3291 21.5126 25.0126C20.8291 25.696 20.8291 26.804 21.5126 27.4874L25.5251 31.5L21.5126 35.5126C20.8291 36.196 20.8291 37.304 21.5126 37.9874C22.196 38.6709 23.304 38.6709 23.9874 37.9874L28 33.9749L32.0126 37.9874C32.696 38.6709 33.804 38.6709 34.4874 37.9874C35.1709 37.304 35.1709 36.196 34.4874 35.5126L30.4749 31.5L34.4874 27.4874C35.1709 26.804 35.1709 25.696 34.4874 25.0126C33.804 24.3291 32.696 24.3291 32.0126 25.0126L28 29.0251L23.9874 25.0126Z" fill="#D2D2D2"/>
<path d="M49 49V15.75L33.25 0H14C10.134 0 7 3.134 7 7V49C7 52.866 10.134 56 14 56H42C45.866 56 49 52.866 49 49ZM33.25 10.5C33.25 13.3995 35.6005 15.75 38.5 15.75H45.5V49C45.5 50.933 43.933 52.5 42 52.5H14C12.067 52.5 10.5 50.933 10.5 49V7C10.5 5.067 12.067 3.5 14 3.5H33.25V10.5Z" fill="#D2D2D2"/>
</svg>
