<svg width="58" height="58" viewBox="0 0 58 58" fill="none" xmlns="http://www.w3.org/2000/svg">
<path d="M19.9375 25.375C19.4568 25.375 18.9958 25.566 18.6559 25.9059C18.316 26.2458 18.125 26.7068 18.125 27.1875C18.125 27.6682 18.316 28.1292 18.6559 28.4691C18.9958 28.809 19.4568 29 19.9375 29H38.0625C38.5432 29 39.0042 28.809 39.3441 28.4691C39.684 28.1292 39.875 27.6682 39.875 27.1875C39.875 26.7068 39.684 26.2458 39.3441 25.9059C39.0042 25.566 38.5432 25.375 38.0625 25.375H19.9375ZM18.125 34.4375C18.125 33.9568 18.316 33.4958 18.6559 33.1559C18.9958 32.816 19.4568 32.625 19.9375 32.625H38.0625C38.5432 32.625 39.0042 32.816 39.3441 33.1559C39.684 33.4958 39.875 33.9568 39.875 34.4375C39.875 34.9182 39.684 35.3792 39.3441 35.7191C39.0042 36.059 38.5432 36.25 38.0625 36.25H19.9375C19.4568 36.25 18.9958 36.059 18.6559 35.7191C18.316 35.3792 18.125 34.9182 18.125 34.4375ZM18.125 41.6875C18.125 41.2068 18.316 40.7458 18.6559 40.4059C18.9958 40.066 19.4568 39.875 19.9375 39.875H27.1875C27.6682 39.875 28.1292 40.066 28.4691 40.4059C28.809 40.7458 29 41.2068 29 41.6875C29 42.1682 28.809 42.6292 28.4691 42.9691C28.1292 43.309 27.6682 43.5 27.1875 43.5H19.9375C19.4568 43.5 18.9958 43.309 18.6559 42.9691C18.316 42.6292 18.125 42.1682 18.125 41.6875Z" fill="#D2D2D2"/>
<path d="M34.1875 0H14.25C12.3272 0 10.4831 0.763837 9.12348 2.12348C7.76384 3.48311 7 5.32718 7 7.25V50.75C7 52.6728 7.76384 54.5169 9.12348 55.8765C10.4831 57.2362 12.3272 58 14.25 58H43.25C45.1728 58 47.0169 57.2362 48.3765 55.8765C49.7362 54.5169 50.5 52.6728 50.5 50.75V16.3125L34.1875 0ZM34.1875 3.625V10.875C34.1875 12.3171 34.7604 13.7002 35.7801 14.7199C36.7998 15.7396 38.1829 16.3125 39.625 16.3125H46.875V50.75C46.875 51.7114 46.4931 52.6334 45.8133 53.3133C45.1334 53.9931 44.2114 54.375 43.25 54.375H14.25C13.2886 54.375 12.3666 53.9931 11.6867 53.3133C11.0069 52.6334 10.625 51.7114 10.625 50.75V7.25C10.625 6.28859 11.0069 5.36656 11.6867 4.68674C12.3666 4.00692 13.2886 3.625 14.25 3.625H34.1875Z" fill="#D2D2D2"/>
</svg>
