<svg width="16" height="16" viewBox="0 0 16 16" fill="none" xmlns="http://www.w3.org/2000/svg">
<path d="M14 4.5V14C14 14.5304 13.7893 15.0391 13.4142 15.4142C13.0391 15.7893 12.5304 16 12 16H4C3.46957 16 2.96086 15.7893 2.58579 15.4142C2.21071 15.0391 2 14.5304 2 14V2C2 1.46957 2.21071 0.960859 2.58579 0.585786C2.96086 0.210714 3.46957 0 4 0L9.5 0L14 4.5ZM11 4.5C10.6022 4.5 10.2206 4.34196 9.93934 4.06066C9.65804 3.77936 9.5 3.39782 9.5 3V1H4C3.73478 1 3.48043 1.10536 3.29289 1.29289C3.10536 1.48043 3 1.73478 3 2V14C3 14.2652 3.10536 14.5196 3.29289 14.7071C3.48043 14.8946 3.73478 15 4 15H12C12.2652 15 12.5196 14.8946 12.7071 14.7071C12.8946 14.5196 13 14.2652 13 14V4.5H11Z" fill="#017DD3"/>
<path d="M5 5.75C5 5.6837 5.02634 5.62011 5.07322 5.57322C5.12011 5.52634 5.1837 5.5 5.25 5.5H10.75C10.8163 5.5 10.8799 5.52634 10.9268 5.57322C10.9737 5.62011 11 5.6837 11 5.75C11 5.8163 10.9737 5.87989 10.9268 5.92678C10.8799 5.97366 10.8163 6 10.75 6H10.25V6.5C10.2501 6.92452 10.1301 7.3404 9.90388 7.69961C9.67764 8.05882 9.3544 8.3467 8.9715 8.53C8.8265 8.5995 8.75 8.7185 8.75 8.825V9.175C8.75 9.2815 8.827 9.4005 8.9715 9.47C9.3544 9.6533 9.67764 9.94118 9.90388 10.3004C10.1301 10.6596 10.2501 11.0755 10.25 11.5V12H10.75C10.8163 12 10.8799 12.0263 10.9268 12.0732C10.9737 12.1201 11 12.1837 11 12.25C11 12.3163 10.9737 12.3799 10.9268 12.4268C10.8799 12.4737 10.8163 12.5 10.75 12.5H5.25C5.1837 12.5 5.12011 12.4737 5.07322 12.4268C5.02634 12.3799 5 12.3163 5 12.25C5 12.1837 5.02634 12.1201 5.07322 12.0732C5.12011 12.0263 5.1837 12 5.25 12H5.75V11.5C5.7499 11.0755 5.86989 10.6596 6.09612 10.3004C6.32236 9.94118 6.6456 9.6533 7.0285 9.47C7.1735 9.4005 7.25 9.2815 7.25 9.175V8.825C7.25 8.7185 7.173 8.5995 7.0285 8.53C6.6456 8.3467 6.32236 8.05882 6.09612 7.69961C5.86989 7.3404 5.7499 6.92452 5.75 6.5V6H5.25C5.1837 6 5.12011 5.97366 5.07322 5.92678C5.02634 5.87989 5 5.8163 5 5.75ZM6.25 6V6.5C6.24991 6.83021 6.34325 7.15371 6.51923 7.43312C6.69521 7.71253 6.94665 7.93644 7.2445 8.079C7.511 8.207 7.75 8.4745 7.75 8.8245V9.1755C7.75 9.1755 7.84 9.25 8 9.25C8.16 9.25 8.25 9.175 8.25 9.175V8.825C8.25 8.4745 8.489 8.207 8.7555 8.079C9.05335 7.93644 9.30479 7.71253 9.48077 7.43312C9.65675 7.15371 9.75009 6.83021 9.75 6.5V6H6.25Z" fill="#017DD3"/>
</svg>
