<svg width="32" height="32" viewBox="0 0 32 32" fill="none" xmlns="http://www.w3.org/2000/svg">
<circle cx="16" cy="16" r="16" fill="#A7B5B6"/>
<g clip-path="url(#clip0_2478_8191)">
<path fill-rule="evenodd" clip-rule="evenodd" d="M22.6397 6.48276C22.7194 6.53204 22.7851 6.60084 22.8307 6.68266C22.8764 6.76447 22.9003 6.85658 22.9004 6.95026V23.4503C22.9004 23.5961 22.8424 23.736 22.7393 23.8392C22.6362 23.9423 22.4963 24.0003 22.3504 24.0003H19.0504C18.9045 24.0003 18.7646 23.9423 18.6615 23.8392C18.5583 23.736 18.5004 23.5961 18.5004 23.4503V21.8003H17.4004V23.4503C17.4004 23.5961 17.3424 23.736 17.2393 23.8392C17.1362 23.9423 16.9963 24.0003 16.8504 24.0003H6.95039C6.80452 24.0003 6.66463 23.9423 6.56148 23.8392C6.45834 23.736 6.40039 23.5961 6.40039 23.4503V17.4003C6.40048 17.2849 6.43685 17.1724 6.50437 17.0789C6.57188 16.9853 6.66712 16.9153 6.77659 16.8789L13.0004 14.8043V11.3503C13.0004 11.2482 13.0288 11.1482 13.0824 11.0613C13.136 10.9745 13.2127 10.9043 13.304 10.8586L22.104 6.45856C22.1879 6.41655 22.2812 6.39672 22.375 6.40095C22.4688 6.40519 22.5599 6.43335 22.6397 6.48276ZM13.0004 15.9637L7.50039 17.7963V22.9003H13.0004V15.9637ZM14.1004 22.9003H16.3004V21.2503C16.3004 21.1044 16.3583 20.9645 16.4615 20.8614C16.5646 20.7582 16.7045 20.7003 16.8504 20.7003H19.0504C19.1963 20.7003 19.3362 20.7582 19.4393 20.8614C19.5424 20.9645 19.6004 21.1044 19.6004 21.2503V22.9003H21.8004V7.84016L14.1004 11.6902V22.9003Z" fill="white"/>
<path d="M8.60059 18.5002H9.70059V19.6002H8.60059V18.5002ZM10.8006 18.5002H11.9006V19.6002H10.8006V18.5002ZM8.60059 20.7002H9.70059V21.8002H8.60059V20.7002ZM10.8006 20.7002H11.9006V21.8002H10.8006V20.7002ZM15.2006 16.3002H16.3006V17.4002H15.2006V16.3002ZM17.4006 16.3002H18.5006V17.4002H17.4006V16.3002ZM15.2006 18.5002H16.3006V19.6002H15.2006V18.5002ZM17.4006 18.5002H18.5006V19.6002H17.4006V18.5002ZM19.6006 16.3002H20.7006V17.4002H19.6006V16.3002ZM19.6006 18.5002H20.7006V19.6002H19.6006V18.5002ZM15.2006 14.1002H16.3006V15.2002H15.2006V14.1002ZM17.4006 14.1002H18.5006V15.2002H17.4006V14.1002ZM19.6006 14.1002H20.7006V15.2002H19.6006V14.1002ZM15.2006 11.9002H16.3006V13.0002H15.2006V11.9002ZM17.4006 11.9002H18.5006V13.0002H17.4006V11.9002ZM19.6006 11.9002H20.7006V13.0002H19.6006V11.9002ZM19.6006 9.7002H20.7006V10.8002H19.6006V9.7002Z" fill="white"/>
</g>
<defs>
<clipPath id="clip0_2478_8191">
<rect width="17.6" height="17.6" fill="white" transform="translate(6.40039 6.40039)"/>
</clipPath>
</defs>
</svg>
