<svg width="58" height="58" viewBox="0 0 58 58" fill="none" xmlns="http://www.w3.org/2000/svg">
<g clip-path="url(#clip0_27_728)">
<path d="M29.7649 7.42027C29.5253 7.30876 29.2642 7.25098 29 7.25098C28.7357 7.25098 28.4747 7.30876 28.2351 7.42027L1.0476 20.1078C0.727452 20.2572 0.457954 20.497 0.272256 20.7975C0.086557 21.0981 -0.00724622 21.4464 0.00238241 21.7996C0.012011 22.1527 0.124652 22.4954 0.326451 22.7854C0.528251 23.0754 0.81041 23.3001 1.13823 23.4319L28.3257 34.3069C28.7585 34.4803 29.2415 34.4803 29.6742 34.3069L50.75 25.8824V47.1249C49.7886 47.1249 48.8665 47.5068 48.1867 48.1866C47.5069 48.8665 47.125 49.7885 47.125 50.7499V57.9999H58V50.7499C58 49.7885 57.6181 48.8665 56.9382 48.1866C56.2584 47.5068 55.3364 47.1249 54.375 47.1249V24.4288L56.8617 23.4319C57.1895 23.3001 57.4717 23.0754 57.6735 22.7854C57.8753 22.4954 57.9879 22.1527 57.9976 21.7996C58.0072 21.4464 57.9134 21.0981 57.7277 20.7975C57.542 20.497 57.2725 20.2572 56.9524 20.1078L29.7649 7.42027ZM29 30.6674L6.37273 21.623L29 11.0634L51.6272 21.623L29 30.6674Z" fill="#D2D2D2"/>
<path d="M15.138 32.7411C14.9046 32.6532 14.6556 32.6144 14.4065 32.6271C14.1574 32.6399 13.9136 32.7039 13.6904 32.8151C13.4672 32.9264 13.2694 33.0825 13.1093 33.2737C12.9492 33.465 12.8303 33.6872 12.76 33.9265L10.9475 40.089C10.8205 40.5216 10.8594 40.986 11.0564 41.3916C11.2535 41.7971 11.5946 42.1146 12.0132 42.2821L28.3257 48.8071C28.7585 48.9806 29.2415 48.9806 29.6742 48.8071L45.9867 42.2821C46.4053 42.1146 46.7465 41.7971 46.9435 41.3916C47.1406 40.986 47.1794 40.5216 47.0525 40.089L45.24 33.9265C45.1697 33.6872 45.0508 33.465 44.8907 33.2737C44.7306 33.0825 44.5327 32.9264 44.3095 32.8151C44.0863 32.7039 43.8426 32.6399 43.5935 32.6271C43.3444 32.6144 43.0954 32.6532 42.862 32.7411L29 37.9394L15.138 32.7411ZM14.8915 39.5307L15.689 36.8192L28.362 41.5716C28.7733 41.7263 29.2267 41.7263 29.638 41.5716L42.311 36.8192L43.1085 39.5307L29 45.1676L14.8915 39.5271V39.5307Z" fill="#D2D2D2"/>
</g>
<defs>
<clipPath id="clip0_27_728">
<rect width="58" height="58" fill="white"/>
</clipPath>
</defs>
</svg>
