<svg width="507" height="76" viewBox="0 0 507 76" fill="none" xmlns="http://www.w3.org/2000/svg">
<path d="M111.781 44.7274H103.468C102.515 44.7274 101.601 44.3517 100.927 43.683C100.254 43.0143 99.875 42.1074 99.875 41.1617V34.8382C99.8743 34.3221 99.9869 33.8121 100.205 33.3436C100.423 32.8751 100.741 32.4593 101.137 32.1251C101.786 31.5741 102.613 31.272 103.467 31.2734H111.78L111.781 44.7274Z" fill="#01487B"/>
<path d="M131.159 51.7565H114.557C113.947 51.7565 113.343 51.6373 112.78 51.4057C112.217 51.1741 111.705 50.8346 111.274 50.4066C110.842 49.9787 110.5 49.4707 110.267 48.9116C110.034 48.3525 109.914 47.7532 109.914 47.1481V28.852C109.914 27.63 110.403 26.4581 111.274 25.5941C112.145 24.73 113.326 24.2446 114.557 24.2446H131.159V51.7565Z" fill="#0096FF"/>
<path d="M131.16 22.6049V53.3929C131.16 53.727 131.433 53.9978 131.77 53.9978H134.206C134.543 53.9978 134.816 53.727 134.816 53.3929V22.6049C134.816 22.2708 134.543 22 134.206 22H131.77C131.433 22 131.16 22.2708 131.16 22.6049Z" fill="#017DD3"/>
<path d="M134.816 33.8711V29.1821H146.117C146.427 29.1821 146.734 29.2428 147.021 29.3606C147.307 29.4785 147.568 29.6512 147.787 29.869C148.007 30.0868 148.181 30.3453 148.299 30.6298C148.418 30.9143 148.479 31.2192 148.479 31.5271C148.479 32.1488 148.23 32.7449 147.787 33.1845C147.344 33.6241 146.743 33.8711 146.117 33.8711H134.816Z" fill="#323130"/>
<path d="M148.477 44.4726C148.477 45.0943 148.228 45.6905 147.785 46.1301C147.342 46.5697 146.741 46.8166 146.114 46.8166H134.814V42.1277H146.114C146.741 42.1277 147.342 42.3746 147.785 42.8142C148.228 43.2538 148.477 43.85 148.477 44.4717V44.4726Z" fill="#323130"/>
<path d="M131.159 51.7565H114.557C113.947 51.7565 113.343 51.6373 112.78 51.4057C112.217 51.1741 111.705 50.8346 111.274 50.4066C110.842 49.9787 110.5 49.4707 110.267 48.9116C110.034 48.3525 109.914 47.7532 109.914 47.1481V28.852C109.914 27.63 110.403 26.4581 111.274 25.5941C112.145 24.73 113.326 24.2446 114.557 24.2446C115.94 44.0003 131.159 45.8169 131.159 45.8169V51.7565Z" fill="#017DD3"/>
<path d="M131.16 51.7553V24.2434H129.822V51.7553H131.16Z" fill="#01487B"/>
<path d="M124.139 51.7564H114.553C113.943 51.7564 113.34 51.6372 112.776 51.4056C112.213 51.174 111.701 50.8345 111.27 50.4066C110.839 49.9787 110.497 49.4706 110.263 48.9115C110.03 48.3524 109.91 47.7532 109.91 47.1481V34.304C109.912 47.2744 124.139 51.7564 124.139 51.7564Z" fill="#01487B"/>
<path d="M109.914 44.7274V31.2734H109.046V44.7274H109.914Z" fill="#00365C"/>
<path d="M136.469 33.8711V29.1821H134.814V33.8711H136.469Z" fill="#323130"/>
<path d="M136.473 46.8166V42.1277H134.818V46.8166H136.473Z" fill="#323130"/>
<path d="M109.911 44.7273H103.468C102.515 44.7273 101.601 44.3517 100.927 43.683C100.254 43.0143 99.875 42.1073 99.875 41.1616V34.8381C99.8743 34.322 99.9869 33.812 100.205 33.3435C100.423 32.875 100.741 32.4592 101.137 32.125C99.9191 41.9814 109.91 43.4867 109.91 43.4867L109.911 44.7273Z" fill="#00365C"/>
<path d="M395.129 44.7277H403.441C404.394 44.7277 405.308 44.352 405.982 43.6833C406.656 43.0146 407.035 42.1076 407.035 41.162V34.8384C407.035 34.3224 406.923 33.8124 406.705 33.3439C406.487 32.8753 406.169 32.4595 405.772 32.1253C405.123 31.5743 404.297 31.2722 403.442 31.2737H395.13L395.129 44.7277Z" fill="#01487B"/>
<path d="M375.754 51.7567H392.359C392.969 51.7567 393.573 51.6375 394.136 51.4059C394.699 51.1743 395.211 50.8348 395.642 50.4069C396.073 49.979 396.415 49.4709 396.649 48.9118C396.882 48.3527 397.002 47.7535 397.002 47.1484V28.8522C397.002 27.6303 396.513 26.4584 395.642 25.5943C394.771 24.7303 393.59 24.2449 392.359 24.2449H375.754V51.7567Z" fill="#0096FF"/>
<path d="M372.094 22.6051V53.3931C372.094 53.7272 372.367 53.998 372.703 53.998H375.14C375.476 53.998 375.749 53.7272 375.749 53.3931V22.6051C375.749 22.271 375.476 22.0002 375.14 22.0002H372.703C372.367 22.0002 372.094 22.271 372.094 22.6051Z" fill="#017DD3"/>
<path d="M375.754 51.7567H392.359C392.969 51.7567 393.573 51.6375 394.136 51.4059C394.699 51.1743 395.211 50.8348 395.642 50.4069C396.073 49.979 396.415 49.4709 396.649 48.9118C396.882 48.3527 397.002 47.7535 397.002 47.1484V28.8522C397.002 27.6303 396.513 26.4584 395.642 25.5943C394.771 24.7303 393.59 24.2449 392.359 24.2449C390.973 44.0005 375.754 45.8172 375.754 45.8172V51.7567Z" fill="#017DD3"/>
<path d="M377.09 51.7567V24.2449H375.751V51.7567H377.09Z" fill="#01487B"/>
<path d="M382.77 51.7566H392.355C392.965 51.7566 393.569 51.6374 394.132 51.4058C394.696 51.1742 395.208 50.8348 395.639 50.4068C396.07 49.9789 396.412 49.4709 396.645 48.9118C396.878 48.3527 396.998 47.7534 396.998 47.1483V34.3042C396.996 47.2746 382.77 51.7566 382.77 51.7566Z" fill="#01487B"/>
<path d="M397.863 44.7267V31.2727H396.995V44.7267H397.863Z" fill="#00365C"/>
<path d="M396.996 44.7276H403.439C404.392 44.7276 405.306 44.3519 405.98 43.6832C406.654 43.0145 407.032 42.1076 407.032 41.1619V34.8383C407.033 34.3223 406.92 33.8123 406.702 33.3438C406.484 32.8753 406.166 32.4594 405.77 32.1252C406.988 41.9817 396.997 43.4869 396.997 43.4869L396.996 44.7276Z" fill="#00365C"/>
<path d="M100.094 36H0.09375V40H100.094V36Z" fill="#0161A4"/>
<path d="M506.91 36.0002H406.91V40.0002H506.91V36.0002Z" fill="#0161A4"/>
<path d="M200.273 72H216.689V59.52H224.561V45.312H216.689V2.88H198.353L168.017 46.272V59.52H200.273V72ZM185.297 45.312L201.425 20.928V45.312H185.297ZM232.601 36C232.601 56.736 239.609 71.712 259.577 71.712C279.545 71.712 286.553 56.736 286.553 36C286.553 15.456 279.545 0.479994 259.577 0.479994C239.609 0.479994 232.601 15.456 232.601 36ZM270.425 36C270.425 47.136 269.273 56.352 259.577 56.352C249.881 56.352 248.729 47.136 248.729 36C248.729 25.248 249.881 15.84 259.577 15.84C269.273 15.84 270.425 25.248 270.425 36ZM327.866 72H344.282V59.52H352.154V45.312H344.282V2.88H325.946L295.61 46.272V59.52H327.866V72ZM312.89 45.312L329.018 20.928V45.312H312.89Z" fill="#017DD3"/>
</svg>
