<svg width="16" height="16" viewBox="0 0 16 16" fill="none" xmlns="http://www.w3.org/2000/svg">
<path d="M11.534 6.99954H15.466C15.5135 6.99955 15.56 7.01311 15.6001 7.0386C15.6402 7.0641 15.6722 7.10049 15.6923 7.14351C15.7125 7.18653 15.7199 7.2344 15.7138 7.28152C15.7078 7.32863 15.6884 7.37304 15.658 7.40954L13.692 9.76954C13.6685 9.79767 13.6392 9.82031 13.606 9.83584C13.5728 9.85137 13.5366 9.85942 13.5 9.85942C13.4634 9.85942 13.4272 9.85137 13.394 9.83584C13.3608 9.82031 13.3315 9.79767 13.308 9.76954L11.342 7.40954C11.3116 7.37304 11.2922 7.32863 11.2861 7.28152C11.2801 7.2344 11.2875 7.18653 11.3077 7.14351C11.3278 7.10049 11.3598 7.0641 11.3999 7.0386C11.44 7.01311 11.4865 6.99955 11.534 6.99954ZM0.533995 8.99954H4.46599C4.5135 8.99952 4.56001 8.98597 4.60009 8.96047C4.64017 8.93497 4.67216 8.89858 4.69231 8.85556C4.71245 8.81254 4.71992 8.76467 4.71385 8.71756C4.70777 8.67044 4.6884 8.62604 4.65799 8.58954L2.69199 6.22954C2.66853 6.2014 2.63917 6.17877 2.60599 6.16323C2.57282 6.1477 2.53663 6.13965 2.49999 6.13965C2.46336 6.13965 2.42717 6.1477 2.39399 6.16323C2.36082 6.17877 2.33146 6.2014 2.30799 6.22954L0.341995 8.58954C0.311592 8.62604 0.292219 8.67044 0.286142 8.71756C0.280066 8.76467 0.287538 8.81254 0.307684 8.85556C0.32783 8.89858 0.359816 8.93497 0.399896 8.96047C0.439976 8.98597 0.486491 8.99952 0.533995 8.99954Z" fill="#323130"/>
<path fill-rule="evenodd" clip-rule="evenodd" d="M8.00001 2.99974C6.44801 2.99974 5.06001 3.70674 4.14301 4.81774C4.10206 4.87082 4.05086 4.91512 3.99245 4.948C3.93404 4.98089 3.86961 5.0017 3.803 5.00919C3.73638 5.01668 3.66895 5.0107 3.60469 4.9916C3.54043 4.9725 3.48068 4.94068 3.42897 4.89803C3.37726 4.85537 3.33465 4.80275 3.30368 4.7433C3.27272 4.68385 3.25402 4.61878 3.24871 4.55195C3.24339 4.48513 3.25157 4.41792 3.27275 4.35432C3.29394 4.29073 3.32769 4.23204 3.37201 4.18174C4.1042 3.29527 5.0756 2.63776 6.17067 2.2874C7.26575 1.93704 8.43841 1.90859 9.54918 2.20543C10.66 2.50227 11.6621 3.11191 12.4364 3.96183C13.2107 4.81175 13.7246 5.8662 13.917 6.99974H12.9C12.6691 5.87055 12.0554 4.85574 11.1625 4.12689C10.2697 3.39804 9.15256 2.99989 8.00001 2.99974ZM3.10001 8.99974C3.28932 9.92437 3.73636 10.7766 4.38949 11.4579C5.04261 12.1392 5.87517 12.6218 6.79097 12.85C7.70677 13.0782 8.66845 13.0427 9.5649 12.7475C10.4613 12.4522 11.256 11.9094 11.857 11.1817C11.898 11.1287 11.9492 11.0844 12.0076 11.0515C12.066 11.0186 12.1304 10.9978 12.197 10.9903C12.2636 10.9828 12.3311 10.9888 12.3953 11.0079C12.4596 11.027 12.5193 11.0588 12.5711 11.1015C12.6228 11.1441 12.6654 11.1967 12.6963 11.2562C12.7273 11.3156 12.746 11.3807 12.7513 11.4475C12.7566 11.5144 12.7484 11.5816 12.7273 11.6452C12.7061 11.7088 12.6723 11.7675 12.628 11.8177C11.8958 12.7042 10.9244 13.3617 9.82934 13.7121C8.73427 14.0624 7.56161 14.0909 6.45083 13.7941C5.34006 13.4972 4.33791 12.8876 3.5636 12.0377C2.78928 11.1877 2.27538 10.1333 2.08301 8.99974H3.10001Z" fill="#323130"/>
</svg>
