<svg width="20" height="20" viewBox="0 0 20 20" fill="none" xmlns="http://www.w3.org/2000/svg">
<rect x="0.5" y="0.5" width="19" height="19" rx="9.5" fill="white"/>
<path d="M13.5341 8.99954H17.4661C17.5136 8.99955 17.5601 9.01311 17.6002 9.0386C17.6403 9.0641 17.6722 9.10049 17.6924 9.14351C17.7125 9.18653 17.72 9.2344 17.7139 9.28152C17.7079 9.32863 17.6885 9.37304 17.6581 9.40954L15.6921 11.7695C15.6686 11.7977 15.6393 11.8203 15.6061 11.8358C15.5729 11.8514 15.5367 11.8594 15.5001 11.8594C15.4635 11.8594 15.4273 11.8514 15.3941 11.8358C15.3609 11.8203 15.3315 11.7977 15.3081 11.7695L13.3421 9.40954C13.3117 9.37304 13.2923 9.32863 13.2862 9.28152C13.2802 9.2344 13.2876 9.18653 13.3078 9.14351C13.3279 9.10049 13.3599 9.0641 13.4 9.0386C13.4401 9.01311 13.4866 8.99955 13.5341 8.99954ZM2.53409 10.9995H6.46609C6.51359 10.9995 6.56011 10.986 6.60019 10.9605C6.64027 10.935 6.67225 10.8986 6.6924 10.8556C6.71254 10.8125 6.72002 10.7647 6.71394 10.7176C6.70786 10.6704 6.68849 10.626 6.65809 10.5895L4.69209 8.22954C4.66862 8.2014 4.63926 8.17877 4.60609 8.16323C4.57291 8.1477 4.53672 8.13965 4.50009 8.13965C4.46345 8.13965 4.42726 8.1477 4.39409 8.16323C4.36091 8.17877 4.33155 8.2014 4.30809 8.22954L2.34209 10.5895C2.31168 10.626 2.29231 10.6704 2.28623 10.7176C2.28016 10.7647 2.28763 10.8125 2.30778 10.8556C2.32792 10.8986 2.35991 10.935 2.39999 10.9605C2.44007 10.986 2.48658 10.9995 2.53409 10.9995Z" fill="#0096FF"/>
<path fill-rule="evenodd" clip-rule="evenodd" d="M10 4.99974C8.44801 4.99974 7.06001 5.70674 6.14301 6.81774C6.10206 6.87082 6.05086 6.91512 5.99245 6.948C5.93404 6.98089 5.86961 7.0017 5.803 7.00919C5.73638 7.01668 5.66895 7.0107 5.60469 6.9916C5.54043 6.9725 5.48068 6.94068 5.42897 6.89802C5.37726 6.85537 5.33465 6.80275 5.30368 6.7433C5.27272 6.68385 5.25402 6.61878 5.24871 6.55195C5.24339 6.48513 5.25157 6.41792 5.27275 6.35432C5.29394 6.29073 5.32769 6.23204 5.37201 6.18174C6.1042 5.29527 7.0756 4.63776 8.17067 4.2874C9.26575 3.93704 10.4384 3.90859 11.5492 4.20543C12.66 4.50227 13.6621 5.11191 14.4364 5.96183C15.2107 6.81175 15.7246 7.8662 15.917 8.99974H14.9C14.6691 7.87055 14.0554 6.85574 13.1625 6.12689C12.2697 5.39804 11.1526 4.99989 10 4.99974ZM5.10001 10.9997C5.28932 11.9244 5.73636 12.7766 6.38949 13.4579C7.04261 14.1392 7.87517 14.6218 8.79097 14.85C9.70677 15.0782 10.6685 15.0427 11.5649 14.7475C12.4613 14.4522 13.256 13.9094 13.857 13.1817C13.898 13.1287 13.9492 13.0844 14.0076 13.0515C14.066 13.0186 14.1304 12.9978 14.197 12.9903C14.2636 12.9828 14.3311 12.9888 14.3953 13.0079C14.4596 13.027 14.5193 13.0588 14.5711 13.1015C14.6228 13.1441 14.6654 13.1967 14.6963 13.2562C14.7273 13.3156 14.746 13.3807 14.7513 13.4475C14.7566 13.5144 14.7484 13.5816 14.7273 13.6452C14.7061 13.7088 14.6723 13.7675 14.628 13.8177C13.8958 14.7042 12.9244 15.3617 11.8293 15.7121C10.7343 16.0624 9.56161 16.0909 8.45083 15.7941C7.34006 15.4972 6.33791 14.8876 5.5636 14.0377C4.78928 13.1877 4.27538 12.1333 4.08301 10.9997H5.10001Z" fill="#0096FF"/>
<rect x="0.5" y="0.5" width="19" height="19" rx="9.5" stroke="#0096FF"/>
</svg>
