<svg width="10" height="10" viewBox="0 0 10 10" fill="none" xmlns="http://www.w3.org/2000/svg">
<g clip-path="url(#clip0_2207:14709)">
<path d="M8.75 0H1.25C0.918479 0 0.600537 0.131696 0.366117 0.366117C0.131696 0.600537 0 0.918479 0 1.25L0 8.75C0 9.08152 0.131696 9.39946 0.366117 9.63388C0.600537 9.8683 0.918479 10 1.25 10H8.75C9.08152 10 9.39946 9.8683 9.63388 9.63388C9.8683 9.39946 10 9.08152 10 8.75V1.25C10 0.918479 9.8683 0.600537 9.63388 0.366117C9.39946 0.131696 9.08152 0 8.75 0V0ZM0.625 2.41062C0.625 2.115 0.905 1.875 1.25 1.875H8.75C9.095 1.875 9.375 2.115 9.375 2.41062V8.83937C9.375 9.135 9.095 9.375 8.75 9.375H1.25C0.905 9.375 0.625 9.135 0.625 8.83937V2.41062Z" fill="#323130"/>
<path d="M4.0625 4.375C4.22826 4.375 4.38723 4.30915 4.50444 4.19194C4.62165 4.07473 4.6875 3.91576 4.6875 3.75C4.6875 3.58424 4.62165 3.42527 4.50444 3.30806C4.38723 3.19085 4.22826 3.125 4.0625 3.125C3.89674 3.125 3.73777 3.19085 3.62056 3.30806C3.50335 3.42527 3.4375 3.58424 3.4375 3.75C3.4375 3.91576 3.50335 4.07473 3.62056 4.19194C3.73777 4.30915 3.89674 4.375 4.0625 4.375ZM5.9375 4.375C6.10326 4.375 6.26223 4.30915 6.37944 4.19194C6.49665 4.07473 6.5625 3.91576 6.5625 3.75C6.5625 3.58424 6.49665 3.42527 6.37944 3.30806C6.26223 3.19085 6.10326 3.125 5.9375 3.125C5.77174 3.125 5.61277 3.19085 5.49556 3.30806C5.37835 3.42527 5.3125 3.58424 5.3125 3.75C5.3125 3.91576 5.37835 4.07473 5.49556 4.19194C5.61277 4.30915 5.77174 4.375 5.9375 4.375ZM7.8125 4.375C7.97826 4.375 8.13723 4.30915 8.25444 4.19194C8.37165 4.07473 8.4375 3.91576 8.4375 3.75C8.4375 3.58424 8.37165 3.42527 8.25444 3.30806C8.13723 3.19085 7.97826 3.125 7.8125 3.125C7.64674 3.125 7.48777 3.19085 7.37056 3.30806C7.25335 3.42527 7.1875 3.58424 7.1875 3.75C7.1875 3.91576 7.25335 4.07473 7.37056 4.19194C7.48777 4.30915 7.64674 4.375 7.8125 4.375ZM2.1875 6.25C2.35326 6.25 2.51223 6.18415 2.62944 6.06694C2.74665 5.94973 2.8125 5.79076 2.8125 5.625C2.8125 5.45924 2.74665 5.30027 2.62944 5.18306C2.51223 5.06585 2.35326 5 2.1875 5C2.02174 5 1.86277 5.06585 1.74556 5.18306C1.62835 5.30027 1.5625 5.45924 1.5625 5.625C1.5625 5.79076 1.62835 5.94973 1.74556 6.06694C1.86277 6.18415 2.02174 6.25 2.1875 6.25ZM4.0625 6.25C4.22826 6.25 4.38723 6.18415 4.50444 6.06694C4.62165 5.94973 4.6875 5.79076 4.6875 5.625C4.6875 5.45924 4.62165 5.30027 4.50444 5.18306C4.38723 5.06585 4.22826 5 4.0625 5C3.89674 5 3.73777 5.06585 3.62056 5.18306C3.50335 5.30027 3.4375 5.45924 3.4375 5.625C3.4375 5.79076 3.50335 5.94973 3.62056 6.06694C3.73777 6.18415 3.89674 6.25 4.0625 6.25ZM5.9375 6.25C6.10326 6.25 6.26223 6.18415 6.37944 6.06694C6.49665 5.94973 6.5625 5.79076 6.5625 5.625C6.5625 5.45924 6.49665 5.30027 6.37944 5.18306C6.26223 5.06585 6.10326 5 5.9375 5C5.77174 5 5.61277 5.06585 5.49556 5.18306C5.37835 5.30027 5.3125 5.45924 5.3125 5.625C5.3125 5.79076 5.37835 5.94973 5.49556 6.06694C5.61277 6.18415 5.77174 6.25 5.9375 6.25ZM7.8125 6.25C7.97826 6.25 8.13723 6.18415 8.25444 6.06694C8.37165 5.94973 8.4375 5.79076 8.4375 5.625C8.4375 5.45924 8.37165 5.30027 8.25444 5.18306C8.13723 5.06585 7.97826 5 7.8125 5C7.64674 5 7.48777 5.06585 7.37056 5.18306C7.25335 5.30027 7.1875 5.45924 7.1875 5.625C7.1875 5.79076 7.25335 5.94973 7.37056 6.06694C7.48777 6.18415 7.64674 6.25 7.8125 6.25ZM2.1875 8.125C2.35326 8.125 2.51223 8.05915 2.62944 7.94194C2.74665 7.82473 2.8125 7.66576 2.8125 7.5C2.8125 7.33424 2.74665 7.17527 2.62944 7.05806C2.51223 6.94085 2.35326 6.875 2.1875 6.875C2.02174 6.875 1.86277 6.94085 1.74556 7.05806C1.62835 7.17527 1.5625 7.33424 1.5625 7.5C1.5625 7.66576 1.62835 7.82473 1.74556 7.94194C1.86277 8.05915 2.02174 8.125 2.1875 8.125ZM4.0625 8.125C4.22826 8.125 4.38723 8.05915 4.50444 7.94194C4.62165 7.82473 4.6875 7.66576 4.6875 7.5C4.6875 7.33424 4.62165 7.17527 4.50444 7.05806C4.38723 6.94085 4.22826 6.875 4.0625 6.875C3.89674 6.875 3.73777 6.94085 3.62056 7.05806C3.50335 7.17527 3.4375 7.33424 3.4375 7.5C3.4375 7.66576 3.50335 7.82473 3.62056 7.94194C3.73777 8.05915 3.89674 8.125 4.0625 8.125ZM5.9375 8.125C6.10326 8.125 6.26223 8.05915 6.37944 7.94194C6.49665 7.82473 6.5625 7.66576 6.5625 7.5C6.5625 7.33424 6.49665 7.17527 6.37944 7.05806C6.26223 6.94085 6.10326 6.875 5.9375 6.875C5.77174 6.875 5.61277 6.94085 5.49556 7.05806C5.37835 7.17527 5.3125 7.33424 5.3125 7.5C5.3125 7.66576 5.37835 7.82473 5.49556 7.94194C5.61277 8.05915 5.77174 8.125 5.9375 8.125Z" fill="#323130"/>
</g>
<defs>
<clipPath id="clip0_2207:14709">
<rect width="10" height="10" fill="white"/>
</clipPath>
</defs>
</svg>
