<svg width="48" height="48" viewBox="0 0 48 48" fill="none" xmlns="http://www.w3.org/2000/svg">
<path d="M39.5589 46.8856H10.1193C10.0311 46.8858 9.94388 46.8679 9.86285 46.8332C9.78183 46.7985 9.70873 46.7476 9.64803 46.6837C9.58732 46.6197 9.54028 46.5441 9.50979 46.4614C9.47929 46.3787 9.46597 46.2906 9.47064 46.2026L9.72102 41.4882C9.91375 39.8431 10.5303 38.2761 11.5103 36.9407C12.4902 35.6053 13.8001 34.5472 15.3117 33.8698C15.3339 33.8601 15.3566 33.8516 15.3798 33.8445L20.7052 32.1581C20.7875 32.1283 20.8749 32.1155 20.9623 32.1203C21.0497 32.1252 21.1351 32.1478 21.2135 32.1865C21.292 32.2253 21.3617 32.2796 21.4187 32.346C21.4756 32.4125 21.5185 32.4898 21.5447 32.5732C21.571 32.6567 21.5801 32.7446 21.5715 32.8316C21.5629 32.9187 21.5368 33.0031 21.4948 33.0799C21.4527 33.1566 21.3955 33.224 21.3267 33.278C21.2579 33.3321 21.1789 33.3717 21.0944 33.3944L15.8047 35.0698C14.5118 35.6541 13.3914 36.5619 12.5517 37.7055C11.712 38.8491 11.1814 40.19 11.0112 41.5985L10.8004 45.5883H38.8778L38.6832 41.5544C38.5023 40.1551 37.9676 38.8251 37.1295 37.6901C36.2914 36.5551 35.1776 35.6526 33.8936 35.0679L28.5519 33.3814C28.4685 33.3578 28.3906 33.3176 28.3229 33.2634C28.2552 33.2091 28.1991 33.1418 28.1578 33.0654C28.1166 32.9891 28.0911 32.9053 28.0829 32.8189C28.0747 32.7325 28.0838 32.6454 28.1099 32.5626C28.1359 32.4799 28.1783 32.4032 28.2345 32.3371C28.2907 32.271 28.3596 32.2168 28.4371 32.1778C28.5146 32.1388 28.5992 32.1158 28.6857 32.1101C28.7723 32.1043 28.8592 32.116 28.9411 32.1444L34.3178 33.8439C34.3405 33.8517 34.3638 33.8601 34.3826 33.8698C35.8851 34.5473 37.1881 35.5996 38.1666 36.9258C39.145 38.2519 39.7661 39.8074 39.9701 41.4428L40.2049 46.2052C40.2092 46.293 40.1956 46.3808 40.165 46.4632C40.1343 46.5456 40.0872 46.6209 40.0265 46.6845C39.9659 46.7482 39.8929 46.7988 39.8121 46.8334C39.7312 46.868 39.6442 46.8857 39.5563 46.8856H39.5589Z" fill="#323130"/>
<path d="M21.616 37.6528C21.4628 37.6528 21.3145 37.5985 21.1974 37.4996C21.0803 37.4007 21.0021 37.2635 20.9765 37.1124L20.263 32.88C20.2384 32.7344 20.2642 32.5848 20.3361 32.4559C20.4081 32.327 20.5218 32.2265 20.6586 32.171C20.7578 32.1303 20.8649 32.1125 20.9719 32.1189C21.0789 32.1253 21.1831 32.1558 21.2768 32.208L25.1771 34.6378C25.2727 34.6973 25.3512 34.7806 25.4049 34.8795C25.4586 34.9785 25.4856 35.0898 25.4832 35.2023C25.4809 35.3149 25.4493 35.4249 25.3915 35.5215C25.3337 35.6182 25.2518 35.6981 25.1538 35.7535L21.9345 37.5697C21.8373 37.6245 21.7276 37.6531 21.616 37.6528ZM21.7737 34.0456L22.1012 35.9851L23.5639 35.1568L21.7737 34.0456Z" fill="#605e5c"/>
<path d="M28.0542 37.6527C27.9424 37.6528 27.8324 37.6239 27.735 37.569L24.5158 35.7528C24.4178 35.6974 24.3359 35.6174 24.2782 35.5207C24.2205 35.424 24.1889 35.314 24.1867 35.2014C24.1844 35.0889 24.2114 34.9776 24.2651 34.8787C24.3189 34.7798 24.3974 34.6965 24.4931 34.6371L28.3954 32.2105C28.4819 32.157 28.5799 32.1246 28.6813 32.1159C28.7827 32.1072 28.8847 32.1225 28.9791 32.1606C29.12 32.217 29.2383 32.3183 29.3156 32.4489C29.3929 32.5795 29.4249 32.7319 29.4066 32.8825L28.6931 37.115C28.6675 37.2661 28.5892 37.4032 28.4721 37.5021C28.3551 37.601 28.2068 37.6553 28.0535 37.6553L28.0542 37.6527ZM26.1082 35.1586L27.5677 35.985L27.8959 34.0456L26.1082 35.1586Z" fill="#605e5c"/>
<path d="M24.8364 35.8314C24.7154 35.8315 24.5968 35.7978 24.494 35.7341L20.6961 33.3743C20.6253 33.3511 20.5593 33.315 20.5015 33.2679C20.3966 33.1866 20.3195 33.0747 20.2808 32.9478C20.2421 32.8208 20.2437 32.6849 20.2855 32.5589L20.9257 30.7589C20.953 30.6771 20.9963 30.6014 21.0532 30.5365C21.11 30.4716 21.1792 30.4187 21.2568 30.3809C21.3343 30.343 21.4187 30.321 21.5048 30.3162C21.591 30.3114 21.6772 30.3238 21.7585 30.3527C21.8398 30.3816 21.9145 30.4264 21.9783 30.4846C22.042 30.5427 22.0935 30.613 22.1298 30.6913C22.166 30.7696 22.1863 30.8544 22.1894 30.9406C22.1925 31.0268 22.1783 31.1128 22.1478 31.1935L21.6937 32.4688L24.8332 34.4186L27.9772 32.4616L27.5231 31.1877C27.4656 31.0255 27.4748 30.8472 27.5488 30.6918C27.6227 30.5365 27.7554 30.4169 27.9175 30.3594C28.0797 30.3018 28.258 30.311 28.4134 30.385C28.5687 30.459 28.6883 30.5916 28.7458 30.7537L29.3861 32.5589C29.4172 32.6464 29.4292 32.7395 29.4212 32.832C29.4132 32.9246 29.3855 33.0143 29.3399 33.0951C29.2942 33.176 29.2318 33.2461 29.1567 33.3008C29.0817 33.3554 28.9957 33.3933 28.9048 33.4119L25.1737 35.7334C25.0725 35.7966 24.9558 35.8306 24.8364 35.8314Z" fill="#605e5c"/>
<path d="M25.712 38.2281H23.9697C23.867 38.2281 23.7657 38.2037 23.6743 38.1569C23.5828 38.1101 23.5038 38.0422 23.4437 37.9589L22.4675 36.6052C22.4144 36.5321 22.3772 36.4488 22.3582 36.3605C22.3393 36.2722 22.3389 36.181 22.3572 36.0926C22.3756 36.0042 22.4121 35.9205 22.4646 35.8471C22.5171 35.7736 22.5843 35.7119 22.662 35.6659L24.5075 34.584C24.6071 34.5255 24.7205 34.4946 24.836 34.4946C24.9515 34.4946 25.0649 34.5255 25.1645 34.584L27.0112 35.6711C27.0888 35.7171 27.156 35.7788 27.2084 35.8522C27.2608 35.9256 27.2974 36.0091 27.3157 36.0975C27.334 36.1858 27.3337 36.277 27.3148 36.3652C27.2959 36.4534 27.2588 36.5367 27.2058 36.6097L26.2329 37.9583C26.1733 38.041 26.0952 38.1085 26.0047 38.1554C25.9142 38.2023 25.8139 38.2272 25.712 38.2281ZM24.3012 36.9308H25.3799L25.7425 36.4287L24.8383 35.8962L23.9366 36.4249L24.3012 36.9308Z" fill="#605e5c"/>
<path d="M24.8434 45.2705C24.756 45.2705 24.6696 45.2529 24.5892 45.2186C24.5088 45.1844 24.4362 45.1343 24.3757 45.0714L22.529 43.1507C22.4571 43.0761 22.4042 42.9853 22.3746 42.886C22.3451 42.7867 22.3397 42.6817 22.359 42.5799L23.332 37.4556C23.3603 37.3072 23.4394 37.1733 23.5558 37.077C23.6722 36.9808 23.8186 36.9281 23.9696 36.9282H25.7119C25.863 36.9281 26.0093 36.9808 26.1257 37.077C26.2421 37.1733 26.3213 37.3072 26.3495 37.4556L27.3225 42.5799C27.3418 42.6817 27.3365 42.7867 27.3069 42.886C27.2773 42.9853 27.2244 43.0761 27.1526 43.1507L25.3058 45.0714C25.2459 45.1337 25.1741 45.1834 25.0947 45.2176C25.0153 45.2518 24.9298 45.2698 24.8434 45.2705ZM23.6933 42.493L24.8434 43.6858L25.9902 42.493L25.1781 38.2281H24.5061L23.6933 42.493Z" fill="#605e5c"/>
<path d="M24.8333 32.5135C20.0157 32.5135 16.5195 27.9671 16.5195 21.7031C16.5195 21.4002 16.5357 21.1018 16.5617 20.8034C16.5764 20.6348 16.6565 20.4786 16.7849 20.3682C16.9132 20.2577 17.0796 20.2019 17.2486 20.2125C20.6553 20.4272 24.1243 19.44 26.2973 17.6341C26.3653 17.5777 26.4442 17.5357 26.5291 17.5108C26.614 17.4859 26.7031 17.4787 26.7908 17.4895C26.8786 17.5003 26.9633 17.529 27.0396 17.5737C27.1159 17.6184 27.1822 17.6783 27.2346 17.7496C27.8626 18.6222 28.6577 19.3614 29.5736 19.9244C30.4896 20.4873 31.5082 20.8629 32.5703 21.0292C32.7291 21.0467 32.8757 21.1222 32.9822 21.2412C33.0888 21.3602 33.1477 21.5142 33.1476 21.6739V21.7031C33.1457 27.9671 29.6508 32.5135 24.8333 32.5135ZM17.8188 21.5351V21.7031C17.8188 27.2166 20.7701 31.2162 24.8352 31.2162C28.7706 31.2162 31.6616 27.4683 31.8406 22.2292C29.7905 21.7717 27.9489 20.6498 26.6021 19.0378C24.0092 20.7719 20.9361 21.6456 17.8188 21.5351Z" fill="#605e5c"/>
<path d="M32.4973 22.3225C32.4732 22.3225 32.4492 22.3212 32.4253 22.3187C30.1449 21.9825 28.0698 20.8137 26.6004 19.0378C23.8176 20.8876 20.4974 21.7565 17.1652 21.5072C17.0784 21.5017 16.9936 21.4788 16.9158 21.4398C16.838 21.4009 16.7689 21.3467 16.7125 21.2805C16.6561 21.2143 16.6136 21.1374 16.5875 21.0545C16.5614 20.9715 16.5523 20.8841 16.5606 20.7976C16.9959 16.2895 20.5517 12.8899 24.8315 12.8899C29.4 12.8899 33.1297 16.8291 33.1459 21.6719C33.1459 21.844 33.0776 22.009 32.9559 22.1306C32.8343 22.2523 32.6693 22.3206 32.4973 22.3206V22.3225ZM26.712 17.4849C26.8138 17.4845 26.9144 17.5083 27.0052 17.5543C27.0961 17.6003 27.1748 17.6672 27.2348 17.7496C28.3588 19.2872 29.9723 20.3968 31.8103 20.8962C31.4322 17.134 28.4432 14.1872 24.8335 14.1872C23.158 14.2266 21.5499 14.8545 20.2911 15.9608C19.0322 17.0671 18.203 18.5813 17.9487 20.2378C21.1271 20.2799 24.2711 19.3141 26.2975 17.6315C26.4144 17.5359 26.561 17.484 26.712 17.4849Z" fill="#605e5c"/>
<path d="M24.8333 32.5135C20.0157 32.5135 16.5195 27.9671 16.5195 21.7031C16.5195 21.4002 16.5357 21.1018 16.5617 20.8034C16.5764 20.6348 16.6565 20.4786 16.7849 20.3682C16.9132 20.2577 17.0796 20.2019 17.2486 20.2125C20.6553 20.4272 24.1243 19.44 26.2973 17.6341C26.3653 17.5777 26.4442 17.5357 26.5291 17.5108C26.614 17.4859 26.7031 17.4787 26.7908 17.4895C26.8786 17.5003 26.9633 17.529 27.0396 17.5737C27.1159 17.6184 27.1822 17.6783 27.2346 17.7496C27.8626 18.6222 28.6577 19.3614 29.5736 19.9244C30.4896 20.4873 31.5082 20.8629 32.5703 21.0292C32.7291 21.0467 32.8757 21.1222 32.9822 21.2412C33.0888 21.3602 33.1477 21.5142 33.1476 21.6739V21.7031C33.1457 27.9671 29.6508 32.5135 24.8333 32.5135ZM17.8188 21.5351V21.7031C17.8188 27.2166 20.7701 31.2162 24.8352 31.2162C28.7706 31.2162 31.6616 27.4683 31.8406 22.2292C29.7905 21.7717 27.9489 20.6498 26.6021 19.0378C24.0092 20.7719 20.9361 21.6456 17.8188 21.5351Z" fill="#605e5c"/>
<path d="M32.4973 22.3225C32.4732 22.3225 32.4492 22.3212 32.4253 22.3187C30.1449 21.9825 28.0698 20.8137 26.6004 19.0378C23.8176 20.8876 20.4974 21.7565 17.1652 21.5072C17.0784 21.5017 16.9936 21.4788 16.9158 21.4398C16.838 21.4009 16.7689 21.3467 16.7125 21.2805C16.6561 21.2143 16.6136 21.1374 16.5875 21.0545C16.5614 20.9715 16.5523 20.8841 16.5606 20.7976C16.9959 16.2895 20.5517 12.8899 24.8315 12.8899C29.4 12.8899 33.1297 16.8291 33.1459 21.6719C33.1459 21.844 33.0776 22.009 32.9559 22.1306C32.8343 22.2523 32.6693 22.3206 32.4973 22.3206V22.3225ZM26.712 17.4849C26.8138 17.4845 26.9144 17.5083 27.0052 17.5543C27.0961 17.6003 27.1748 17.6672 27.2348 17.7496C28.3588 19.2872 29.9723 20.3968 31.8103 20.8962C31.4322 17.134 28.4432 14.1872 24.8335 14.1872C23.158 14.2266 21.5499 14.8545 20.2911 15.9608C19.0322 17.0671 18.203 18.5813 17.9487 20.2378C21.1271 20.2799 24.2711 19.3141 26.2975 17.6315C26.4144 17.5359 26.561 17.484 26.712 17.4849Z" fill="#605e5c"/>
<path d="M39.5589 46.8856H10.1193C10.0311 46.8858 9.94388 46.8679 9.86285 46.8332C9.78183 46.7985 9.70873 46.7476 9.64803 46.6837C9.58732 46.6197 9.54028 46.5441 9.50979 46.4614C9.47929 46.3787 9.46597 46.2906 9.47064 46.2026L9.72102 41.4882C9.91375 39.8431 10.5303 38.2761 11.5103 36.9407C12.4902 35.6053 13.8001 34.5472 15.3117 33.8698C15.3339 33.8601 15.3566 33.8516 15.3798 33.8445L20.7052 32.1581C20.7875 32.1283 20.8749 32.1155 20.9623 32.1203C21.0497 32.1252 21.1351 32.1478 21.2135 32.1865C21.292 32.2253 21.3617 32.2796 21.4187 32.346C21.4756 32.4125 21.5185 32.4898 21.5447 32.5732C21.571 32.6567 21.5801 32.7446 21.5715 32.8316C21.5629 32.9187 21.5368 33.0031 21.4948 33.0799C21.4527 33.1566 21.3955 33.224 21.3267 33.278C21.2579 33.3321 21.1789 33.3717 21.0944 33.3944L15.8047 35.0698C14.5118 35.6541 13.3914 36.5619 12.5517 37.7055C11.712 38.8491 11.1814 40.19 11.0112 41.5985L10.8004 45.5883H38.8778L38.6832 41.5544C38.5023 40.1551 37.9676 38.8251 37.1295 37.6901C36.2914 36.5551 35.1776 35.6526 33.8936 35.0679L28.5519 33.3814C28.4685 33.3578 28.3906 33.3176 28.3229 33.2634C28.2552 33.2091 28.1991 33.1418 28.1578 33.0654C28.1166 32.9891 28.0911 32.9053 28.0829 32.8189C28.0747 32.7325 28.0838 32.6454 28.1099 32.5626C28.1359 32.4799 28.1783 32.4032 28.2345 32.3371C28.2907 32.271 28.3596 32.2168 28.4371 32.1778C28.5146 32.1388 28.5992 32.1158 28.6857 32.1101C28.7723 32.1043 28.8592 32.116 28.9411 32.1444L34.3178 33.8439C34.3405 33.8517 34.3638 33.8601 34.3826 33.8698C35.8851 34.5473 37.1881 35.5996 38.1666 36.9258C39.145 38.2519 39.7661 39.8074 39.9701 41.4428L40.2049 46.2052C40.2092 46.293 40.1956 46.3808 40.165 46.4632C40.1343 46.5456 40.0872 46.6209 40.0265 46.6845C39.9659 46.7482 39.8929 46.7988 39.8121 46.8334C39.7312 46.868 39.6442 46.8857 39.5563 46.8856H39.5589Z" fill="#605e5c"/>
<path d="M12.1347 11.3583C12.0402 11.3584 11.9469 11.3378 11.8612 11.298C11.7755 11.2582 11.6996 11.2001 11.6386 11.1279C11.5777 11.0557 11.5333 10.971 11.5085 10.8799C11.4838 10.7887 11.4792 10.6932 11.4952 10.6001L11.9109 8.17543L10.1492 6.45846C10.0625 6.37399 10.0011 6.26694 9.97207 6.14941C9.94303 6.03189 9.94745 5.90858 9.98484 5.79343C10.0222 5.67829 10.0911 5.57591 10.1837 5.49787C10.2762 5.41984 10.3888 5.36926 10.5086 5.35186L12.9436 4.99835L14.032 2.79294C14.0858 2.68414 14.169 2.59259 14.2722 2.52873C14.3754 2.46486 14.4944 2.43122 14.6158 2.43164C14.7372 2.43122 14.8562 2.46486 14.9594 2.52873C15.0626 2.59259 15.1458 2.68414 15.1996 2.79294L16.288 4.99835L18.7224 5.35186C18.8422 5.36926 18.9547 5.41984 19.0473 5.49787C19.1399 5.57591 19.2087 5.67829 19.2461 5.79343C19.2835 5.90858 19.2879 6.03189 19.2589 6.14941C19.2298 6.26694 19.1685 6.37399 19.0817 6.45846L17.3194 8.17543L17.7352 10.6001C17.7556 10.7194 17.7422 10.842 17.6966 10.9541C17.651 11.0662 17.575 11.1633 17.477 11.2344C17.3791 11.3056 17.2633 11.3479 17.1425 11.3566C17.0218 11.3653 16.9011 11.3401 16.794 11.2837L14.6171 10.1389L12.4396 11.2837C12.3456 11.3332 12.2409 11.3588 12.1347 11.3583ZM11.9959 6.44873L13.061 7.48656C13.1362 7.56 13.1925 7.65062 13.2249 7.75062C13.2573 7.85062 13.265 7.95701 13.2472 8.06062L12.9961 9.52591L14.3116 8.83381C14.4047 8.78484 14.5083 8.75924 14.6135 8.75924C14.7187 8.75924 14.8224 8.78484 14.9155 8.83381L16.2309 9.52591L15.9799 8.06062C15.9621 7.95701 15.9697 7.85062 16.0022 7.75062C16.0346 7.65062 16.0908 7.56 16.1661 7.48656L17.2312 6.44873L15.7594 6.23467C15.6553 6.21956 15.5564 6.17936 15.4714 6.11755C15.3863 6.05574 15.3175 5.97417 15.2709 5.87986L14.6139 4.54689L13.9555 5.87791C13.909 5.97214 13.8403 6.05366 13.7553 6.11547C13.6704 6.17727 13.5717 6.21751 13.4677 6.23273L11.9959 6.44873Z" fill="#605e5c"/>
<path d="M37.5337 11.3583C37.4286 11.3582 37.3251 11.3326 37.2321 11.2837L35.0546 10.1388L32.8771 11.2837C32.77 11.34 32.6492 11.3653 32.5285 11.3566C32.4078 11.3478 32.2919 11.3055 32.194 11.2344C32.0961 11.1633 32.02 11.0662 31.9744 10.9541C31.9288 10.842 31.9155 10.7193 31.9359 10.6L32.3517 8.17539L30.5906 6.45842C30.5039 6.37395 30.4425 6.2669 30.4135 6.14938C30.3844 6.03185 30.3889 5.90854 30.4262 5.7934C30.4636 5.67826 30.5325 5.57588 30.6251 5.49784C30.7176 5.4198 30.8302 5.36922 30.95 5.35182L33.3843 4.99831L34.4734 2.79291C34.5332 2.69192 34.6182 2.60825 34.7201 2.55012C34.822 2.49199 34.9373 2.46143 35.0546 2.46143C35.1719 2.46143 35.2872 2.49199 35.3891 2.55012C35.4911 2.60825 35.5761 2.69192 35.6358 2.79291L36.7249 4.99831L39.1599 5.35182C39.2797 5.36922 39.3923 5.4198 39.4848 5.49784C39.5774 5.57588 39.6462 5.67826 39.6836 5.7934C39.721 5.90854 39.7254 6.03185 39.6964 6.14938C39.6673 6.2669 39.606 6.37395 39.5193 6.45842L37.7575 8.17539L38.1733 10.6C38.1893 10.6932 38.1847 10.7887 38.1599 10.8798C38.1351 10.971 38.0907 11.0556 38.0298 11.1279C37.9689 11.2001 37.893 11.2581 37.8073 11.2979C37.7216 11.3377 37.6282 11.3583 37.5337 11.3583ZM35.0546 8.75723C35.1597 8.75729 35.2632 8.78289 35.3562 8.83182L36.6723 9.52393L36.4207 8.05864C36.4029 7.95498 36.4107 7.84856 36.4432 7.74855C36.4758 7.64855 36.5321 7.55796 36.6075 7.48458L37.6726 6.44674L36.2008 6.23269C36.0968 6.21748 35.9981 6.17724 35.9131 6.11543C35.8282 6.05363 35.7595 5.9721 35.713 5.87788L35.0546 4.54491L34.3962 5.87788C34.3497 5.9721 34.2811 6.05363 34.1961 6.11543C34.1111 6.17724 34.0124 6.21748 33.9085 6.23269L32.4373 6.44674L33.5017 7.48458C33.5771 7.55796 33.6335 7.64855 33.666 7.74855C33.6985 7.84856 33.7063 7.95498 33.6886 8.05864L33.4369 9.52393L34.753 8.83182C34.846 8.78289 34.9495 8.75729 35.0546 8.75723Z" fill="#605e5c"/>
<path d="M22.3548 9.76918C22.2603 9.76912 22.1671 9.74845 22.0815 9.7086C21.9958 9.66876 21.92 9.6107 21.8591 9.53849C21.7983 9.46628 21.7539 9.38166 21.7292 9.29053C21.7044 9.19941 21.6999 9.10398 21.7158 9.01091L22.1316 6.58561L20.368 4.86864C20.2812 4.78417 20.2199 4.67712 20.1908 4.5596C20.1618 4.44207 20.1662 4.31876 20.2036 4.20362C20.241 4.08847 20.3098 3.98609 20.4024 3.90806C20.495 3.83002 20.6075 3.77944 20.7273 3.76204L23.1617 3.40853L24.2508 1.20312C24.3105 1.10199 24.3955 1.01817 24.4975 0.959947C24.5994 0.901719 24.7148 0.871094 24.8323 0.871094C24.9497 0.871094 25.0651 0.901719 25.1671 0.959947C25.2691 1.01817 25.3541 1.10199 25.4138 1.20312L26.5022 3.40853L28.9373 3.76204C29.0571 3.77944 29.1696 3.83002 29.2622 3.90806C29.3547 3.98609 29.4236 4.08847 29.461 4.20362C29.4984 4.31876 29.5028 4.44207 29.4737 4.5596C29.4447 4.67712 29.3833 4.78417 29.2966 4.86864L27.5349 6.58561L27.9507 9.01091C27.9703 9.12973 27.9564 9.25167 27.9106 9.36307C27.8648 9.47446 27.7889 9.57091 27.6914 9.64161C27.5939 9.71231 27.4787 9.75447 27.3586 9.76337C27.2385 9.77226 27.1183 9.74755 27.0114 9.69199L24.8339 8.54713L22.657 9.69199C22.564 9.74168 22.4603 9.76816 22.3548 9.76918ZM24.8339 7.1681C24.939 7.16793 25.0426 7.19354 25.1355 7.24269L26.4516 7.93415L26.2006 6.46885C26.1828 6.36524 26.1904 6.25886 26.2229 6.15886C26.2553 6.05886 26.3115 5.96824 26.3868 5.8948L27.4518 4.85696L25.9801 4.64356C25.876 4.62828 25.7773 4.58794 25.6923 4.52602C25.6073 4.4641 25.5387 4.38244 25.4923 4.2881L24.8339 2.95512L24.1762 4.2881C24.1297 4.38252 24.061 4.46423 23.9759 4.52616C23.8908 4.58808 23.7919 4.62838 23.6877 4.64356L22.2166 4.85696L23.2817 5.8948C23.3569 5.96824 23.4132 6.05886 23.4456 6.15886C23.478 6.25886 23.4857 6.36524 23.4678 6.46885L23.2168 7.93415L24.5323 7.24269C24.6252 7.19354 24.7288 7.16793 24.8339 7.1681Z" fill="#605e5c"/>
</svg>
