<svg width="50" height="50" viewBox="0 0 89 80" fill="none" xmlns="http://www.w3.org/2000/svg">
<path d="M58.2583 28.0015C59.228 28.0015 60.163 28.287 60.9623 28.827C61.5523 29.2252 62.3536 29.0704 62.7522 28.4803C63.1507 27.8904 62.9955 27.0892 62.4057 26.6906C61.1785 25.8616 59.7443 25.4233 58.2585 25.4233C54.1694 25.4233 50.8428 28.75 50.8428 32.8391C50.8428 36.9281 54.1694 40.2548 58.2585 40.2548C60.1515 40.2548 61.8735 39.532 63.1057 38.0651C63.5634 37.5197 63.4924 36.7068 62.9472 36.2491C62.4019 35.7914 61.5887 35.8623 61.131 36.4075C60.3894 37.2917 59.3894 37.6768 58.2585 37.6768C55.591 37.6768 53.4209 35.5067 53.4209 32.8392C53.4209 30.1717 55.5908 28.0015 58.2583 28.0015Z" fill="#A19F9D" class="fill"/>
<path d="M71.6443 40.341C72.1918 40.341 72.6797 39.9952 72.8609 39.4782L77.2164 27.0521C77.4518 26.3805 77.0981 25.6448 76.4262 25.4092C75.7546 25.1741 75.0189 25.5274 74.7833 26.1995L71.6564 35.1205L68.5982 26.2215C68.3667 25.5481 67.6333 25.1899 66.9602 25.4214C66.287 25.6527 65.9288 26.3861 66.1602 27.0594L70.4252 39.4708C70.6036 39.99 71.0913 40.3393 71.6404 40.3408C71.6418 40.341 71.6431 40.341 71.6443 40.341Z" fill="#A19F9D" class="fill"/>
<path d="M59.5877 49.5391L52.9016 47.4221C50.6129 45.7986 48.5377 45.9129 47.678 45.7202L45.7901 44.0754C44.8819 43.2842 43.7185 42.9676 42.604 43.1139V38.8572C46.0805 36.3972 48.4858 32.5023 48.9175 28.0112C50.5591 27.7502 51.8179 26.3248 51.8179 24.6109C51.8179 21.7859 51.8179 13.632 51.8179 11.0212C51.8179 8.05431 49.4043 5.64067 46.4375 5.64067H46.2997C46.2486 5.64067 46.2069 5.59907 46.2069 5.54786C46.2069 2.58112 43.7932 0.16748 40.8265 0.16748H26.7272C20.8244 0.16748 16.0218 4.96984 16.0218 10.8727V24.6109C16.0218 26.3248 17.2807 27.7503 18.9222 28.0112C19.3538 32.5023 21.7592 36.3972 25.2357 38.8572V43.1132C24.123 42.9687 22.9618 43.2858 22.0552 44.0755L20.1437 45.7408C19.7768 45.833 18.4656 45.9278 16.9049 46.8013L8.25739 49.5393C3.61384 51.0093 0.494141 55.2694 0.494141 60.14V74.9326C0.494141 77.6341 2.69208 79.8321 5.39361 79.8321H62.4515C65.153 79.8321 67.3509 77.6341 67.3509 74.9326V60.14C67.3509 55.2694 64.2312 51.0093 59.5877 49.5391ZM44.0966 46.0196L45.37 47.1289C39.8693 54.2957 39.9704 54.9361 38.9598 54.5163L35.8641 51.885L42.1095 46.0693C42.1279 46.0542 42.1463 46.0389 42.1644 46.0229C42.1692 46.0187 42.1733 46.0139 42.178 46.0096C42.7307 45.5385 43.5437 45.5378 44.0966 46.0196ZM45.536 51.2047C44.6829 56.0922 42.2355 61.7744 39.6309 66.8546L37.4339 58.5546L38.665 57.1018C40.0216 57.3585 41.345 56.7938 42.1193 55.7613L45.536 51.2047ZM33.9225 53.6309L36.4062 55.7792L35.4183 56.9452H32.4204L31.4177 55.7976L33.9225 53.6309ZM33.9225 50.17L27.8137 44.4815V40.3273C29.6852 41.1609 31.7527 41.6242 33.9197 41.6242C36.0867 41.6242 38.1542 41.1609 40.0257 40.3274V44.4865L33.9225 50.17ZM18.6 10.8729C18.6 6.39159 22.2458 2.74578 26.7272 2.74578H40.8265C42.3717 2.74578 43.6287 4.00287 43.6287 5.5482C43.6287 7.02082 44.8269 8.21897 46.2997 8.21897H46.4375C47.9827 8.21897 49.2398 9.47606 49.2398 11.0214V18.6666H47.7018C46.8428 18.6666 46.144 17.9677 46.144 17.1087V15.5506C46.144 12.6351 43.2962 10.5498 40.5018 11.4732C36.2589 12.8754 31.5856 12.8757 27.358 11.4793C27.3512 11.4769 27.3443 11.4746 27.3374 11.4724C24.5554 10.5532 21.696 12.6207 21.696 15.5501V17.1087C21.696 17.9677 20.9971 18.6666 20.1381 18.6666H18.6V10.8729ZM21.4557 27.3526C21.3893 26.3002 20.5148 25.4759 19.4648 25.4759C18.9879 25.4759 18.6 25.0878 18.6 24.611V21.2447H20.1381C22.4187 21.2447 24.2741 19.3893 24.2741 17.1087V15.5501C24.2741 14.3571 25.4447 13.5629 26.5134 13.9152C26.5203 13.9177 26.5272 13.9199 26.5341 13.9221C31.2988 15.4962 36.5466 15.4956 41.311 13.9211C42.4251 13.5534 43.5658 14.3819 43.5658 15.5505V17.1085C43.5658 19.3893 45.4212 21.2445 47.7018 21.2445H49.2398V24.6109C49.2398 25.0876 48.8519 25.4757 48.3749 25.4757C47.3248 25.4757 46.4502 26.3 46.3841 27.3524C45.9705 33.9096 40.4956 39.0461 33.9199 39.0461C27.3441 39.0461 21.8694 33.9098 21.4557 27.3526ZM23.7487 46.0194C24.3002 45.5389 25.1109 45.5387 25.6635 46.0065C25.6694 46.0117 25.6743 46.0175 25.6802 46.0227C25.6962 46.0364 25.7132 46.0505 25.7335 46.0672L31.981 51.8848L28.8533 54.5285C28.4843 54.6656 28.0462 54.5582 27.7886 54.215L22.4752 47.1291L23.7487 46.0194ZM25.7259 55.7615C26.4913 56.7819 27.7972 57.3479 29.1402 57.1098L30.4351 58.5916L28.7038 66.3794C25.9932 61.4928 23.3942 56.0353 22.4091 51.3383L25.7259 55.7615ZM31.3672 77.2539C28.6064 75.1885 26.1712 73.191 24.1263 71.3132C23.6019 70.8317 22.7865 70.8662 22.3049 71.3909C21.8235 71.9153 21.8582 72.7307 22.3826 73.2123C23.798 74.512 25.3916 75.8647 27.142 77.2541H13.7582V70.0964C13.7582 69.3843 13.1811 68.8073 12.4692 68.8073C11.7573 68.8073 11.1801 69.3843 11.1801 70.0964V77.2541H5.39361C4.11366 77.2541 3.07227 76.2127 3.07227 74.9328V60.1402C3.07227 56.3988 5.46872 53.1265 9.03547 51.9972L13.3947 50.6171C12.9375 51.6014 12.7048 52.5552 12.7048 53.4578C12.7048 55.5528 15.2467 57.522 16.4553 58.3869C15.2305 59.8339 14.7056 61.4743 14.9746 63.04C15.2589 64.6957 16.2705 66.5614 18.0668 68.7442C18.5192 69.2942 19.3315 69.3731 19.8813 68.9204C20.431 68.468 20.5098 67.6557 20.0575 67.1059C18.2102 64.8612 17.6555 63.4185 17.5154 62.6037C17.3265 61.5038 17.9967 60.5054 18.5922 59.8614C19.0298 59.3882 19.2407 58.7418 19.1711 58.088C19.1022 57.4404 18.7648 56.8598 18.2456 56.4954C16.0872 54.9798 15.283 53.8279 15.283 53.4578C15.283 52.8374 15.4928 52.1289 15.9069 51.3522C16.6733 49.9145 17.9805 48.9386 19.4351 48.5228C19.8729 57.3819 27.2467 69.275 31.7611 76.5566C31.9101 76.7969 32.0538 77.029 32.1932 77.2541H31.3672V77.2539ZM33.9524 75.1981C32.979 73.6282 31.8175 71.7544 30.6066 69.7005L32.869 59.5235H35.0235L37.8507 70.204C36.6441 72.3993 35.4747 74.3958 34.484 76.0563C34.3135 75.7808 34.137 75.496 33.9524 75.1981ZM36.7711 77.2539C41.3394 69.5876 48.1027 57.3453 48.421 48.4277C48.4682 48.4463 51.9148 48.6555 53.31 51.8188C53.5728 52.4147 53.706 52.9659 53.706 53.4575C53.706 53.8274 52.9016 54.9793 50.7435 56.4949C50.2243 56.8594 49.8869 57.44 49.8178 58.0878C49.748 58.7416 49.9591 59.3879 50.3967 59.861C50.9922 60.5051 51.6624 61.5037 51.4736 62.6033C50.9353 65.7368 45.8918 71.0664 37.621 77.2538H36.7711V77.2539ZM64.7728 74.9328C64.7728 76.2127 63.7314 77.2541 62.4515 77.2541H56.6595V70.0964C56.6595 69.3843 56.0823 68.8073 55.3704 68.8073C54.6585 68.8073 54.0813 69.3843 54.0813 70.0964V77.2541H41.8447C45.72 74.1762 53.1793 67.9041 54.0146 63.04C54.2836 61.4743 53.7589 59.8341 52.5339 58.3869C53.7424 57.5222 56.2844 55.553 56.2844 53.4578C56.2844 52.6853 56.1124 51.8718 55.7764 51.0368L58.8098 51.9972C62.3765 53.1265 64.773 56.3988 64.773 60.1402V74.9328H64.7728Z" class="fill" fill="#A19F9D"/>
<path d="M87.0901 15.5068L77.9376 6.35449C77.0323 5.44905 75.8285 4.95044 74.548 4.95044H56.5254C55.8135 4.95044 55.2363 5.52742 55.2363 6.2395C55.2363 6.95158 55.8135 7.52856 56.5254 7.52856H74.152V15.831C74.152 17.7397 75.7049 19.2927 77.6138 19.2927H85.916V61.5643C85.916 62.7859 84.9222 63.7798 83.7005 63.7798H72.0883C71.3764 63.7798 70.7993 64.3568 70.7993 65.0689C70.7993 65.7809 71.3764 66.3579 72.0883 66.3579H83.7005C86.3436 66.3579 88.4941 64.2074 88.4941 61.5643V18.8965C88.4941 17.6163 87.9955 16.4124 87.0901 15.5068ZM77.6136 16.7144C77.1265 16.7144 76.73 16.3181 76.73 15.8308V8.79305L84.6515 16.7144H77.6136Z" class="fill" fill="#A19F9D"/>
</svg>
