<svg width="48" height="48" viewBox="0 0 48 48" fill="none" xmlns="http://www.w3.org/2000/svg">
<path d="M12.1347 11.3583C12.0402 11.3584 11.9469 11.3378 11.8612 11.298C11.7755 11.2582 11.6996 11.2001 11.6386 11.1279C11.5777 11.0557 11.5333 10.971 11.5085 10.8799C11.4838 10.7887 11.4792 10.6932 11.4952 10.6001L11.9109 8.17543L10.1492 6.45846C10.0625 6.37399 10.0011 6.26694 9.97207 6.14941C9.94303 6.03189 9.94745 5.90858 9.98484 5.79343C10.0222 5.67829 10.0911 5.57591 10.1837 5.49787C10.2762 5.41984 10.3888 5.36926 10.5086 5.35186L12.9436 4.99835L14.032 2.79294C14.0858 2.68414 14.169 2.59259 14.2722 2.52873C14.3754 2.46486 14.4944 2.43122 14.6158 2.43164C14.7372 2.43122 14.8562 2.46486 14.9594 2.52873C15.0626 2.59259 15.1458 2.68414 15.1996 2.79294L16.288 4.99835L18.7224 5.35186C18.8422 5.36926 18.9547 5.41984 19.0473 5.49787C19.1399 5.57591 19.2087 5.67829 19.2461 5.79343C19.2835 5.90858 19.2879 6.03189 19.2589 6.14941C19.2298 6.26694 19.1685 6.37399 19.0817 6.45846L17.3194 8.17543L17.7352 10.6001C17.7556 10.7194 17.7422 10.842 17.6966 10.9541C17.651 11.0662 17.575 11.1633 17.477 11.2344C17.3791 11.3056 17.2633 11.3479 17.1425 11.3566C17.0218 11.3653 16.9011 11.3401 16.794 11.2837L14.6171 10.1389L12.4396 11.2837C12.3456 11.3332 12.2409 11.3588 12.1347 11.3583ZM11.9959 6.44873L13.061 7.48656C13.1362 7.56 13.1925 7.65062 13.2249 7.75062C13.2573 7.85062 13.265 7.95701 13.2472 8.06062L12.9961 9.52591L14.3116 8.83381C14.4047 8.78484 14.5083 8.75924 14.6135 8.75924C14.7187 8.75924 14.8224 8.78484 14.9155 8.83381L16.2309 9.52591L15.9799 8.06062C15.9621 7.95701 15.9697 7.85062 16.0022 7.75062C16.0346 7.65062 16.0908 7.56 16.1661 7.48656L17.2312 6.44873L15.7594 6.23467C15.6553 6.21956 15.5564 6.17936 15.4714 6.11755C15.3863 6.05574 15.3175 5.97417 15.2709 5.87986L14.6139 4.54689L13.9555 5.87791C13.909 5.97214 13.8403 6.05366 13.7553 6.11547C13.6704 6.17727 13.5717 6.21751 13.4677 6.23273L11.9959 6.44873Z" fill="#605e5c"/>
<path d="M37.5337 11.3583C37.4286 11.3582 37.3251 11.3326 37.2321 11.2837L35.0546 10.1388L32.8771 11.2837C32.77 11.34 32.6492 11.3653 32.5285 11.3566C32.4078 11.3478 32.2919 11.3055 32.194 11.2344C32.0961 11.1633 32.02 11.0662 31.9744 10.9541C31.9288 10.842 31.9155 10.7193 31.9359 10.6L32.3517 8.17539L30.5906 6.45842C30.5039 6.37395 30.4425 6.2669 30.4135 6.14938C30.3844 6.03185 30.3889 5.90854 30.4262 5.7934C30.4636 5.67826 30.5325 5.57588 30.6251 5.49784C30.7176 5.4198 30.8302 5.36922 30.95 5.35182L33.3843 4.99831L34.4734 2.79291C34.5332 2.69192 34.6182 2.60825 34.7201 2.55012C34.822 2.49199 34.9373 2.46143 35.0546 2.46143C35.1719 2.46143 35.2872 2.49199 35.3891 2.55012C35.4911 2.60825 35.5761 2.69192 35.6358 2.79291L36.7249 4.99831L39.1599 5.35182C39.2797 5.36922 39.3923 5.4198 39.4848 5.49784C39.5774 5.57588 39.6462 5.67826 39.6836 5.7934C39.721 5.90854 39.7254 6.03185 39.6964 6.14938C39.6673 6.2669 39.606 6.37395 39.5193 6.45842L37.7575 8.17539L38.1733 10.6C38.1893 10.6932 38.1847 10.7887 38.1599 10.8798C38.1351 10.971 38.0907 11.0556 38.0298 11.1279C37.9689 11.2001 37.893 11.2581 37.8073 11.2979C37.7216 11.3377 37.6282 11.3583 37.5337 11.3583ZM35.0546 8.75723C35.1597 8.75729 35.2632 8.78289 35.3562 8.83182L36.6723 9.52393L36.4207 8.05864C36.4029 7.95498 36.4107 7.84856 36.4432 7.74855C36.4758 7.64855 36.5321 7.55796 36.6075 7.48458L37.6726 6.44674L36.2008 6.23269C36.0968 6.21748 35.9981 6.17724 35.9131 6.11543C35.8282 6.05363 35.7595 5.9721 35.713 5.87788L35.0546 4.54491L34.3962 5.87788C34.3497 5.9721 34.2811 6.05363 34.1961 6.11543C34.1111 6.17724 34.0124 6.21748 33.9085 6.23269L32.4373 6.44674L33.5017 7.48458C33.5771 7.55796 33.6335 7.64855 33.666 7.74855C33.6985 7.84856 33.7063 7.95498 33.6886 8.05864L33.4369 9.52393L34.753 8.83182C34.846 8.78289 34.9495 8.75729 35.0546 8.75723Z" fill="#605e5c"/>
<path d="M22.3548 9.76918C22.2603 9.76912 22.1671 9.74845 22.0815 9.7086C21.9958 9.66876 21.92 9.6107 21.8591 9.53849C21.7983 9.46628 21.7539 9.38166 21.7292 9.29053C21.7044 9.19941 21.6999 9.10398 21.7158 9.01091L22.1316 6.58561L20.368 4.86864C20.2812 4.78417 20.2199 4.67712 20.1908 4.5596C20.1618 4.44207 20.1662 4.31876 20.2036 4.20362C20.241 4.08847 20.3098 3.98609 20.4024 3.90806C20.495 3.83002 20.6075 3.77944 20.7273 3.76204L23.1617 3.40853L24.2508 1.20312C24.3105 1.10199 24.3955 1.01817 24.4975 0.959947C24.5994 0.901719 24.7148 0.871094 24.8323 0.871094C24.9497 0.871094 25.0651 0.901719 25.1671 0.959947C25.2691 1.01817 25.3541 1.10199 25.4138 1.20312L26.5022 3.40853L28.9373 3.76204C29.0571 3.77944 29.1696 3.83002 29.2622 3.90806C29.3547 3.98609 29.4236 4.08847 29.461 4.20362C29.4984 4.31876 29.5028 4.44207 29.4737 4.5596C29.4447 4.67712 29.3833 4.78417 29.2966 4.86864L27.5349 6.58561L27.9507 9.01091C27.9703 9.12973 27.9564 9.25167 27.9106 9.36307C27.8648 9.47446 27.7889 9.57091 27.6914 9.64161C27.5939 9.71231 27.4787 9.75447 27.3586 9.76337C27.2385 9.77226 27.1183 9.74755 27.0114 9.69199L24.8339 8.54713L22.657 9.69199C22.564 9.74168 22.4603 9.76816 22.3548 9.76918ZM24.8339 7.1681C24.939 7.16793 25.0426 7.19354 25.1355 7.24269L26.4516 7.93415L26.2006 6.46885C26.1828 6.36524 26.1904 6.25886 26.2229 6.15886C26.2553 6.05886 26.3115 5.96824 26.3868 5.8948L27.4518 4.85696L25.9801 4.64356C25.876 4.62828 25.7773 4.58794 25.6923 4.52602C25.6073 4.4641 25.5387 4.38244 25.4923 4.2881L24.8339 2.95512L24.1762 4.2881C24.1297 4.38252 24.061 4.46423 23.9759 4.52616C23.8908 4.58808 23.7919 4.62838 23.6877 4.64356L22.2166 4.85696L23.2817 5.8948C23.3569 5.96824 23.4132 6.05886 23.4456 6.15886C23.478 6.25886 23.4857 6.36524 23.4678 6.46885L23.2168 7.93415L24.5323 7.24269C24.6252 7.19354 24.7288 7.16793 24.8339 7.1681Z" fill="#605e5c"/>
<path fill-rule="evenodd" clip-rule="evenodd" d="M7.99961 46.6499C7.64062 46.6499 7.34961 46.3589 7.34961 45.9999V24.004C7.34961 23.645 7.64062 23.354 7.99961 23.354H15.3828V19.5088H14.0406C13.6816 19.5088 13.3906 19.2178 13.3906 18.8588V14.9999C13.3906 14.6409 13.6816 14.3499 14.0406 14.3499H33.9576C34.3166 14.3499 34.6076 14.6409 34.6076 14.9999V18.8588C34.6076 19.2178 34.3166 19.5088 33.9576 19.5088H32.6164V23.354H39.9996C40.3586 23.354 40.6496 23.645 40.6496 24.004V45.9999C40.6496 46.3589 40.3586 46.6499 39.9996 46.6499H31.9664H31.9664H27.983H20.0162H16.0328H7.99961ZM19.3662 45.3499H16.6828V19.5088H31.3164V23.9992L31.3164 24.004V45.3499H28.633V38.1534C28.633 37.7944 28.342 37.5034 27.983 37.5034H20.0162C19.6572 37.5034 19.3662 37.7944 19.3662 38.1534V45.3499ZM27.333 45.3499H20.6662V38.8034H27.333V45.3499ZM14.6906 18.2088H16.0283L16.0328 18.2088H31.9664L31.9709 18.2088H33.3076V15.6499H14.6906V18.2088ZM8.64961 24.654V45.3499H15.3828V24.654H8.64961ZM32.6164 45.3499V24.654H39.3496V45.3499H32.6164Z" fill="#605e5c"/>
<path d="M20.0166 22.7176V24.0039" stroke="#605e5c" stroke-width="1.3" stroke-miterlimit="10" stroke-linecap="round" stroke-linejoin="round"/>
<path d="M24 22.7178V24.0042" stroke="#605e5c" stroke-width="1.3" stroke-miterlimit="10" stroke-linecap="round" stroke-linejoin="round"/>
<path d="M27.9834 22.7176V24.0039" stroke="#605e5c" stroke-width="1.3" stroke-miterlimit="10" stroke-linecap="round" stroke-linejoin="round"/>
<path d="M20.0166 27.8631V29.1494" stroke="#605e5c" stroke-width="1.3" stroke-miterlimit="10" stroke-linecap="round" stroke-linejoin="round"/>
<path d="M24 27.8629V29.1492" stroke="#605e5c" stroke-width="1.3" stroke-miterlimit="10" stroke-linecap="round" stroke-linejoin="round"/>
<path d="M27.9834 27.8631V29.1494" stroke="#605e5c" stroke-width="1.3" stroke-miterlimit="10" stroke-linecap="round" stroke-linejoin="round"/>
<path d="M20.0166 33.0084V34.2947" stroke="#605e5c" stroke-width="1.3" stroke-miterlimit="10" stroke-linecap="round" stroke-linejoin="round"/>
<path d="M35.9834 38.1531V39.4395" stroke="#605e5c" stroke-width="1.3" stroke-miterlimit="10" stroke-linecap="round" stroke-linejoin="round"/>
<path d="M12.0166 38.1531V39.4395" stroke="#605e5c" stroke-width="1.3" stroke-miterlimit="10" stroke-linecap="round" stroke-linejoin="round"/>
<path d="M24 33.0081V34.2944" stroke="#605e5c" stroke-width="1.3" stroke-miterlimit="10" stroke-linecap="round" stroke-linejoin="round"/>
<path d="M27.9834 33.0084V34.2947" stroke="#605e5c" stroke-width="1.3" stroke-miterlimit="10" stroke-linecap="round" stroke-linejoin="round"/>
<path d="M12.0166 27.8631V29.1494" stroke="#605e5c" stroke-width="1.3" stroke-miterlimit="10" stroke-linecap="round" stroke-linejoin="round"/>
<path d="M35.9834 27.8631V29.1494" stroke="#605e5c" stroke-width="1.3" stroke-miterlimit="10" stroke-linecap="round" stroke-linejoin="round"/>
<path d="M12.0166 33.0084V34.2947" stroke="#605e5c" stroke-width="1.3" stroke-miterlimit="10" stroke-linecap="round" stroke-linejoin="round"/>
<path d="M35.9834 33.0084V34.2947" stroke="#605e5c" stroke-width="1.3" stroke-miterlimit="10" stroke-linecap="round" stroke-linejoin="round"/>
<path d="M24 38.1535V46" stroke="#605e5c" stroke-width="1.3" stroke-miterlimit="10" stroke-linecap="round" stroke-linejoin="round"/>
</svg>
