<svg width="48" height="48" viewBox="0 0 48 48" fill="none" xmlns="http://www.w3.org/2000/svg">
<path fill-rule="evenodd" clip-rule="evenodd" d="M5 7.97088C5 6.3332 6.33637 5 7.97088 5H26.2124C27.8502 5 29.1833 6.33318 29.1833 7.97086V21.0373H32.3623V17.1676C32.3623 16.6027 33.0082 16.2763 33.463 16.6118L42.7358 23.4524C43.1096 23.7281 43.1095 24.2884 42.736 24.564L33.4632 31.4046C33.01 31.7389 32.3624 31.4152 32.3624 30.8488V26.9792H29.1834V35.4853C29.1834 37.123 27.8503 38.4561 26.2125 38.4561H20.0627V40.3454C20.0627 42.7123 17.4153 44.1317 15.4438 42.8173L6.32299 36.7368C5.49427 36.1843 5 35.2608 5 34.2649V7.97088ZM10.5203 6.38145H8.54202L10.3193 7.23278L18.2304 11.1882C19.4195 11.7829 20.0627 12.7878 20.0627 13.9405V37.0747H26.2125C27.0893 37.0747 27.802 36.3621 27.802 35.4853V26.9792H23.9323C23.5508 26.9792 23.2416 26.67 23.2416 26.2885V21.7281C23.2416 21.3467 23.5508 21.0374 23.9323 21.0374H27.802V7.97095C27.802 7.09411 27.0893 6.38145 26.2125 6.38145H10.5203ZM17.6124 12.4237L6.65881 6.94688C6.58727 7.09912 6.4964 7.25162 6.44104 7.4103C6.36853 7.61814 6.38145 7.77265 6.38145 7.9708V34.2648C6.38145 34.797 6.64626 35.292 7.08929 35.5873L16.21 41.6678C17.2678 42.3732 18.6811 41.6154 18.6811 40.3453V13.9405C18.6811 13.0898 18.0249 12.6299 17.6124 12.4237ZM41.1623 24.0083L33.7438 18.5356V21.728C33.7438 22.1094 33.4345 22.4187 33.0531 22.4187H24.623V25.5977H33.0531C33.4345 25.5977 33.7438 25.907 33.7438 26.2884V29.4809L41.1623 24.0083Z" fill="#605e5c"/>
<path fill-rule="evenodd" clip-rule="evenodd" d="M14.0801 21.7279C14.0801 21.3239 14.4076 20.9963 14.8117 20.9963C15.2156 20.9963 15.5432 21.3239 15.5432 21.728V26.2883C15.5432 26.6923 15.2157 27.0199 14.8117 27.0199C14.4076 27.0199 14.0801 26.6923 14.0801 26.2883V21.7279Z" fill="#605e5c"/>
</svg>
