<svg width="60" height="50" viewBox="0 0 81 80" fill="none" xmlns="http://www.w3.org/2000/svg">
<g clip-path="url(#clip0_796_34752)">
<mask id="path-1-inside-1_796_34752" fill="white">
<path d="M75.6026 69.4426C77.0284 68.24 77.9252 66.4568 77.9252 64.5161V54.1935C77.9252 49.9845 75.8904 46.2529 72.7639 43.8955V15.4839H52.1188V5.16129H46.9575V2.58065H44.3768V5.16129H41.7962V0H39.2155V5.16129H36.6349V2.58065H34.0542V5.16129H28.893V15.4839H8.24779V43.8955C5.12134 46.2529 3.0865 49.9845 3.0865 54.1935V71.551C1.46457 73.5071 0.505859 76.009 0.505859 78.7097V80H80.5033L80.5058 78.711C80.5123 74.9084 78.6091 71.48 75.6026 69.4426ZM75.3446 54.1935V64.5161C75.3446 66.1032 74.3549 67.52 72.9046 68.1006C72.6207 68.0052 72.3316 67.9174 72.0375 67.8439L69.9575 67.3239L69.6594 66.1342C71.5123 64.9987 72.7639 62.9729 72.7639 60.6452V52.9032H71.4736C69.4826 52.9032 67.6336 51.9135 66.5291 50.2568L66.3123 49.9316V46.4516H63.7317V49.9316L63.5149 50.2568C62.4104 51.9135 60.5613 52.9032 58.5704 52.9032H57.28V60.6452C57.28 62.9729 58.5317 64.9987 60.3846 66.1329L60.0865 67.3213L58.0207 67.8348C57.72 67.9097 57.4246 67.9987 57.1329 68.0968C55.6878 67.5161 54.6994 66.1006 54.6994 64.5161V54.1935C54.6994 48.5019 59.3304 43.871 65.022 43.871C70.7136 43.871 75.3446 48.5019 75.3446 54.1935ZM50.8284 51.2955C50.8284 51.6284 50.7768 51.9523 50.7329 52.2787C49.9923 51.8671 49.1536 51.6129 48.2478 51.6129H46.9575H46.7355C44.7265 51.6129 42.8375 50.831 41.4181 49.4103L40.5059 48.4968L39.5936 49.4103C38.1729 50.831 36.2852 51.6129 34.2762 51.6129H34.0542H32.7639C31.8581 51.6129 31.0194 51.8671 30.2788 52.2787C30.2349 51.9523 30.1833 51.6284 30.1833 51.2955C30.1833 47.2013 33.5136 43.871 37.6078 43.871H43.4039C47.4981 43.871 50.8284 47.2013 50.8284 51.2955ZM52.7652 70.8439C51.3613 69.4206 49.5717 68.3587 47.5213 67.8452L45.4413 67.3252L45.1433 66.1355C46.6452 65.2155 47.7549 63.7174 48.1175 61.9368H48.2478C49.7975 61.9368 51.1717 61.2374 52.1188 60.1535V64.5161C52.1188 66.4555 53.0155 68.2374 54.44 69.4413C53.8375 69.8503 53.2788 70.3226 52.7652 70.8439ZM28.893 70.2335V60.1523C29.84 61.2361 31.2142 61.9355 32.7639 61.9355H32.8942C33.2568 63.7161 34.3665 65.2142 35.8684 66.1329L35.5704 67.3213L33.5046 67.8348C31.7523 68.2723 30.1897 69.1123 28.893 70.2335ZM32.7639 59.3548C31.3407 59.3548 30.1833 58.1974 30.1833 56.7742C30.1833 55.351 31.3407 54.1935 32.7639 54.1935V59.3548ZM41.7962 64.5161H39.2155C37.0813 64.5161 35.3446 62.7794 35.3446 60.6452V54.1381C37.2362 53.9406 39.0142 53.2194 40.5059 52.0452C41.9975 53.2194 43.7755 53.9394 45.6671 54.1381V60.6452C45.6671 62.7794 43.9304 64.5161 41.7962 64.5161ZM38.3097 67.0052C38.6091 67.0477 38.9058 67.0968 39.2155 67.0968H41.7962C42.1059 67.0968 42.4026 67.0477 42.702 67.0052L42.9768 68.1032L40.5059 71.3974L38.0349 68.1032L38.3097 67.0052ZM48.2478 54.1935C49.671 54.1935 50.8284 55.351 50.8284 56.7742C50.8284 58.1974 49.671 59.3548 48.2478 59.3548V54.1935ZM34.1291 70.3406L36.1162 69.8465L40.5059 75.6994L44.8942 69.8477L46.8929 70.3484C50.311 71.2039 52.7962 74.0219 53.302 77.4193H27.7097C28.2142 74.0142 30.7046 71.191 34.1291 70.3406ZM54.3794 72.9213C55.52 71.6697 56.9923 70.751 58.6439 70.3394L59.8929 70.0284C60.0129 72.6955 60.8349 75.2348 62.2981 77.4181H55.9084C55.7239 75.7974 55.1936 74.271 54.3794 72.9213ZM65.022 52.5303C66.3497 54.071 68.1781 55.0813 70.1833 55.3858V60.6452C70.1833 62.7794 68.4465 64.5161 66.3123 64.5161H63.7317C61.5975 64.5161 59.8607 62.7794 59.8607 60.6452V55.3858C61.8658 55.0813 63.6942 54.071 65.022 52.5303ZM63.7317 67.0968H66.3123C66.622 67.0968 66.9187 67.0477 67.2181 67.0052L67.6026 68.5432V69.3639C67.6026 69.4697 67.5897 69.5716 67.5871 69.6774H62.4568C62.4542 69.5729 62.4413 69.4697 62.4413 69.3639V68.5445L62.8258 67.0052C63.1252 67.0477 63.422 67.0968 63.7317 67.0968ZM62.8078 72.2581H67.2362C66.8297 73.8968 66.0839 75.4284 65.022 76.7639C63.96 75.4284 63.2142 73.8968 62.8078 72.2581ZM70.1833 42.3755C68.6013 41.6813 66.8568 41.2903 65.022 41.2903C59.7097 41.2903 55.1394 44.52 53.1626 49.1161C52.4271 45.8194 50.0607 43.1381 46.9575 41.9535V18.0645H70.1833V42.3755ZM44.3768 15.4839V41.3394C44.0568 41.3084 43.7329 41.2903 43.4039 41.2903H37.6078C35.2955 41.2903 33.1704 42.0864 31.4736 43.409V12.9032H49.5381V15.4839H44.3768ZM49.5381 7.74194V10.3226H31.4736V7.74194H49.5381ZM10.8284 18.0645H28.893V46.3974C28.4194 47.2374 28.0646 48.1497 27.8491 49.1161C25.8723 44.5187 21.302 41.2903 15.9897 41.2903C14.1549 41.2903 12.4104 41.6813 10.8284 42.3755V18.0645ZM15.9897 43.871C21.6813 43.871 26.3123 48.5019 26.3123 54.1935V69.2813C25.2981 68.6323 24.1846 68.1394 23.0052 67.8439L20.9252 67.3239L20.6271 66.1342C22.48 64.9987 23.7317 62.9729 23.7317 60.6452V52.9032H19.293C17.6568 52.9032 16.1394 52.0903 15.2323 50.729C14.5226 49.6671 13.3368 49.0323 12.0594 49.0323C9.95747 49.0323 8.24779 50.7406 8.24779 52.8413V60.6452C8.24779 62.9729 9.49941 64.9987 11.3523 66.1329L11.0542 67.3213L8.98844 67.8348C7.78457 68.1355 6.66973 68.6271 5.66715 69.2658V54.1935C5.66715 48.5019 10.2981 43.871 15.9897 43.871ZM17.28 64.5161H14.6994C12.5652 64.5161 10.8284 62.7794 10.8284 60.6452V52.8413C10.8284 52.1639 11.3807 51.6129 12.0594 51.6129C12.471 51.6129 12.8542 51.8181 13.0839 52.1613C14.4697 54.2413 16.791 55.4839 19.293 55.4839H21.151V60.6452C21.151 62.7794 19.4142 64.5161 17.28 64.5161ZM13.7936 67.0052C14.093 67.0477 14.3897 67.0968 14.6994 67.0968H17.28C17.5897 67.0968 17.8865 67.0477 18.1859 67.0052L18.56 68.4981C18.4994 69.8697 17.3742 70.9677 15.9897 70.9677C14.6052 70.9677 13.4801 69.8697 13.4207 68.4994L13.7936 67.0052ZM9.61295 70.3406L11.1033 69.9703C11.7755 72.0387 13.6981 73.5484 15.9897 73.5484C18.28 73.5484 20.2026 72.04 20.8762 69.9716L22.3768 70.3484C24.0233 70.76 25.4917 71.6774 26.6284 72.9265C25.8194 74.2736 25.2891 75.7974 25.1033 77.4206H3.17941C3.68263 74.0116 6.18715 71.1923 9.61295 70.3406ZM67.7458 77.4193C69.2091 75.2374 70.0297 72.6981 70.151 70.0323L71.4091 70.3471C74.8284 71.2039 77.3265 74.0194 77.8323 77.4181H67.7458V77.4193Z"/>
</mask>
<path d="M75.6026 69.4426C77.0284 68.24 77.9252 66.4568 77.9252 64.5161V54.1935C77.9252 49.9845 75.8904 46.2529 72.7639 43.8955V15.4839H52.1188V5.16129H46.9575V2.58065H44.3768V5.16129H41.7962V0H39.2155V5.16129H36.6349V2.58065H34.0542V5.16129H28.893V15.4839H8.24779V43.8955C5.12134 46.2529 3.0865 49.9845 3.0865 54.1935V71.551C1.46457 73.5071 0.505859 76.009 0.505859 78.7097V80H80.5033L80.5058 78.711C80.5123 74.9084 78.6091 71.48 75.6026 69.4426ZM75.3446 54.1935V64.5161C75.3446 66.1032 74.3549 67.52 72.9046 68.1006C72.6207 68.0052 72.3316 67.9174 72.0375 67.8439L69.9575 67.3239L69.6594 66.1342C71.5123 64.9987 72.7639 62.9729 72.7639 60.6452V52.9032H71.4736C69.4826 52.9032 67.6336 51.9135 66.5291 50.2568L66.3123 49.9316V46.4516H63.7317V49.9316L63.5149 50.2568C62.4104 51.9135 60.5613 52.9032 58.5704 52.9032H57.28V60.6452C57.28 62.9729 58.5317 64.9987 60.3846 66.1329L60.0865 67.3213L58.0207 67.8348C57.72 67.9097 57.4246 67.9987 57.1329 68.0968C55.6878 67.5161 54.6994 66.1006 54.6994 64.5161V54.1935C54.6994 48.5019 59.3304 43.871 65.022 43.871C70.7136 43.871 75.3446 48.5019 75.3446 54.1935ZM50.8284 51.2955C50.8284 51.6284 50.7768 51.9523 50.7329 52.2787C49.9923 51.8671 49.1536 51.6129 48.2478 51.6129H46.9575H46.7355C44.7265 51.6129 42.8375 50.831 41.4181 49.4103L40.5059 48.4968L39.5936 49.4103C38.1729 50.831 36.2852 51.6129 34.2762 51.6129H34.0542H32.7639C31.8581 51.6129 31.0194 51.8671 30.2788 52.2787C30.2349 51.9523 30.1833 51.6284 30.1833 51.2955C30.1833 47.2013 33.5136 43.871 37.6078 43.871H43.4039C47.4981 43.871 50.8284 47.2013 50.8284 51.2955ZM52.7652 70.8439C51.3613 69.4206 49.5717 68.3587 47.5213 67.8452L45.4413 67.3252L45.1433 66.1355C46.6452 65.2155 47.7549 63.7174 48.1175 61.9368H48.2478C49.7975 61.9368 51.1717 61.2374 52.1188 60.1535V64.5161C52.1188 66.4555 53.0155 68.2374 54.44 69.4413C53.8375 69.8503 53.2788 70.3226 52.7652 70.8439ZM28.893 70.2335V60.1523C29.84 61.2361 31.2142 61.9355 32.7639 61.9355H32.8942C33.2568 63.7161 34.3665 65.2142 35.8684 66.1329L35.5704 67.3213L33.5046 67.8348C31.7523 68.2723 30.1897 69.1123 28.893 70.2335ZM32.7639 59.3548C31.3407 59.3548 30.1833 58.1974 30.1833 56.7742C30.1833 55.351 31.3407 54.1935 32.7639 54.1935V59.3548ZM41.7962 64.5161H39.2155C37.0813 64.5161 35.3446 62.7794 35.3446 60.6452V54.1381C37.2362 53.9406 39.0142 53.2194 40.5059 52.0452C41.9975 53.2194 43.7755 53.9394 45.6671 54.1381V60.6452C45.6671 62.7794 43.9304 64.5161 41.7962 64.5161ZM38.3097 67.0052C38.6091 67.0477 38.9058 67.0968 39.2155 67.0968H41.7962C42.1059 67.0968 42.4026 67.0477 42.702 67.0052L42.9768 68.1032L40.5059 71.3974L38.0349 68.1032L38.3097 67.0052ZM48.2478 54.1935C49.671 54.1935 50.8284 55.351 50.8284 56.7742C50.8284 58.1974 49.671 59.3548 48.2478 59.3548V54.1935ZM34.1291 70.3406L36.1162 69.8465L40.5059 75.6994L44.8942 69.8477L46.8929 70.3484C50.311 71.2039 52.7962 74.0219 53.302 77.4193H27.7097C28.2142 74.0142 30.7046 71.191 34.1291 70.3406ZM54.3794 72.9213C55.52 71.6697 56.9923 70.751 58.6439 70.3394L59.8929 70.0284C60.0129 72.6955 60.8349 75.2348 62.2981 77.4181H55.9084C55.7239 75.7974 55.1936 74.271 54.3794 72.9213ZM65.022 52.5303C66.3497 54.071 68.1781 55.0813 70.1833 55.3858V60.6452C70.1833 62.7794 68.4465 64.5161 66.3123 64.5161H63.7317C61.5975 64.5161 59.8607 62.7794 59.8607 60.6452V55.3858C61.8658 55.0813 63.6942 54.071 65.022 52.5303ZM63.7317 67.0968H66.3123C66.622 67.0968 66.9187 67.0477 67.2181 67.0052L67.6026 68.5432V69.3639C67.6026 69.4697 67.5897 69.5716 67.5871 69.6774H62.4568C62.4542 69.5729 62.4413 69.4697 62.4413 69.3639V68.5445L62.8258 67.0052C63.1252 67.0477 63.422 67.0968 63.7317 67.0968ZM62.8078 72.2581H67.2362C66.8297 73.8968 66.0839 75.4284 65.022 76.7639C63.96 75.4284 63.2142 73.8968 62.8078 72.2581ZM70.1833 42.3755C68.6013 41.6813 66.8568 41.2903 65.022 41.2903C59.7097 41.2903 55.1394 44.52 53.1626 49.1161C52.4271 45.8194 50.0607 43.1381 46.9575 41.9535V18.0645H70.1833V42.3755ZM44.3768 15.4839V41.3394C44.0568 41.3084 43.7329 41.2903 43.4039 41.2903H37.6078C35.2955 41.2903 33.1704 42.0864 31.4736 43.409V12.9032H49.5381V15.4839H44.3768ZM49.5381 7.74194V10.3226H31.4736V7.74194H49.5381ZM10.8284 18.0645H28.893V46.3974C28.4194 47.2374 28.0646 48.1497 27.8491 49.1161C25.8723 44.5187 21.302 41.2903 15.9897 41.2903C14.1549 41.2903 12.4104 41.6813 10.8284 42.3755V18.0645ZM15.9897 43.871C21.6813 43.871 26.3123 48.5019 26.3123 54.1935V69.2813C25.2981 68.6323 24.1846 68.1394 23.0052 67.8439L20.9252 67.3239L20.6271 66.1342C22.48 64.9987 23.7317 62.9729 23.7317 60.6452V52.9032H19.293C17.6568 52.9032 16.1394 52.0903 15.2323 50.729C14.5226 49.6671 13.3368 49.0323 12.0594 49.0323C9.95747 49.0323 8.24779 50.7406 8.24779 52.8413V60.6452C8.24779 62.9729 9.49941 64.9987 11.3523 66.1329L11.0542 67.3213L8.98844 67.8348C7.78457 68.1355 6.66973 68.6271 5.66715 69.2658V54.1935C5.66715 48.5019 10.2981 43.871 15.9897 43.871ZM17.28 64.5161H14.6994C12.5652 64.5161 10.8284 62.7794 10.8284 60.6452V52.8413C10.8284 52.1639 11.3807 51.6129 12.0594 51.6129C12.471 51.6129 12.8542 51.8181 13.0839 52.1613C14.4697 54.2413 16.791 55.4839 19.293 55.4839H21.151V60.6452C21.151 62.7794 19.4142 64.5161 17.28 64.5161ZM13.7936 67.0052C14.093 67.0477 14.3897 67.0968 14.6994 67.0968H17.28C17.5897 67.0968 17.8865 67.0477 18.1859 67.0052L18.56 68.4981C18.4994 69.8697 17.3742 70.9677 15.9897 70.9677C14.6052 70.9677 13.4801 69.8697 13.4207 68.4994L13.7936 67.0052ZM9.61295 70.3406L11.1033 69.9703C11.7755 72.0387 13.6981 73.5484 15.9897 73.5484C18.28 73.5484 20.2026 72.04 20.8762 69.9716L22.3768 70.3484C24.0233 70.76 25.4917 71.6774 26.6284 72.9265C25.8194 74.2736 25.2891 75.7974 25.1033 77.4206H3.17941C3.68263 74.0116 6.18715 71.1923 9.61295 70.3406ZM67.7458 77.4193C69.2091 75.2374 70.0297 72.6981 70.151 70.0323L71.4091 70.3471C74.8284 71.2039 77.3265 74.0194 77.8323 77.4181H67.7458V77.4193Z" fill="#A19F9D" class="fill" stroke="white" stroke-width="0.2" mask="url(#path-1-inside-1_796_34752)"/>
<path d="M34.2559 16.25H36.7559V18.75H34.2559V16.25Z" fill="#A19F9D" class="fill"/>
<path d="M39.2559 16.25H41.7559V18.75H39.2559V16.25Z" fill="#A19F9D" class="fill"/>
<path d="M34.2559 21.25H36.7559V23.75H34.2559V21.25Z" fill="#A19F9D" class="fill"/>
<path d="M39.2559 21.25H41.7559V23.75H39.2559V21.25Z" fill="#A19F9D" class="fill"/>
<path d="M39.2559 26.25H41.7559V28.75H39.2559V26.25Z" fill="#A19F9D" class="fill"/>
<path d="M34.2559 26.25H36.7559V28.75H34.2559V26.25Z" fill="#A19F9D" class="fill"/>
<path d="M34.2559 31.25H36.7559V33.75H34.2559V31.25Z" fill="#A19F9D" class="fill"/>
<path d="M39.2559 31.25H41.7559V33.75H39.2559V31.25Z" fill="#A19F9D" class="fill"/>
<path d="M39.2559 36.25H41.7559V38.75H39.2559V36.25Z" fill="#A19F9D" class="fill"/>
<path d="M34.2559 36.25H36.7559V38.75H34.2559V36.25Z" fill="#A19F9D" class="fill"/>
<path d="M49.2559 21.25H51.7559V23.75H49.2559V21.25Z" fill="#A19F9D" class="fill"/>
<path d="M49.2559 31.25H51.7559V33.75H49.2559V31.25Z" fill="#A19F9D" class="fill"/>
<path d="M49.2559 26.25H51.7559V28.75H49.2559V26.25Z" fill="#A19F9D" class="fill"/>
<path d="M49.2559 36.25H51.7559V38.75H49.2559V36.25Z" fill="#A19F9D" class="fill"/>
<path d="M54.2559 21.25H56.7559V23.75H54.2559V21.25Z" fill="#A19F9D" class="fill"/>
<path d="M54.2559 36.25H56.7559V38.75H54.2559V36.25Z" fill="#A19F9D" class="fill"/>
<path d="M54.2559 31.25H56.7559V33.75H54.2559V31.25Z" fill="#A19F9D" class="fill"/>
<path d="M54.2559 26.25H56.7559V28.75H54.2559V26.25Z" fill="#A19F9D" class="fill"/>
<path d="M59.2559 21.25H61.7559V23.75H59.2559V21.25Z" fill="#A19F9D" class="fill"/>
<path d="M59.2559 26.25H61.7559V28.75H59.2559V26.25Z" fill="#A19F9D" class="fill"/>
<path d="M59.2559 31.25H61.7559V33.75H59.2559V31.25Z" fill="#A19F9D" class="fill"/>
<path d="M59.2559 36.25H61.7559V38.75H59.2559V36.25Z" fill="#A19F9D" class="fill"/>
<path d="M64.2559 21.25H66.7559V23.75H64.2559V21.25Z" fill="#A19F9D" class="fill"/>
<path d="M64.2559 31.25H66.7559V33.75H64.2559V31.25Z" fill="#A19F9D" class="fill"/>
<path d="M64.2559 26.25H66.7559V28.75H64.2559V26.25Z" fill="#A19F9D" class="fill"/>
<path d="M64.2559 36.25H66.7559V38.75H64.2559V36.25Z" fill="#A19F9D" class="fill"/>
<path d="M14.2559 36.25H16.7559V38.75H14.2559V36.25Z" fill="#A19F9D" class="fill"/>
<path d="M14.2559 26.25H16.7559V28.75H14.2559V26.25Z" fill="#A19F9D" class="fill"/>
<path d="M14.2559 21.25H16.7559V23.75H14.2559V21.25Z" fill="#A19F9D" class="fill"/>
<path d="M14.2559 31.25H16.7559V33.75H14.2559V31.25Z" fill="#A19F9D" class="fill"/>
<path d="M19.2559 36.25H21.7559V38.75H19.2559V36.25Z" fill="#A19F9D" class="fill"/>
<path d="M19.2559 31.25H21.7559V33.75H19.2559V31.25Z" fill="#A19F9D" class="fill"/>
<path d="M19.2559 26.25H21.7559V28.75H19.2559V26.25Z" fill="#A19F9D" class="fill"/>
<path d="M19.2559 21.25H21.7559V23.75H19.2559V21.25Z" fill="#A19F9D" class="fill"/>
<path d="M24.2559 31.25H26.7559V33.75H24.2559V31.25Z" fill="#A19F9D" class="fill"/>
<path d="M24.2559 36.25H26.7559V38.75H24.2559V36.25Z" fill="#A19F9D" class="fill"/>
<path d="M24.2559 26.25H26.7559V28.75H24.2559V26.25Z" fill="#A19F9D" class="fill"/>
<path d="M24.2559 21.25H26.7559V23.75H24.2559V21.25Z" fill="#A19F9D" class="fill"/>
</g>
<defs>
<clipPath id="clip0_796_34752">
<rect width="80" height="80" fill="white" transform="translate(0.505859)"/>
</clipPath>
</defs>
</svg>
