<svg width="88" height="88" viewBox="0 0 88 88" fill="none" xmlns="http://www.w3.org/2000/svg">
<path d="M45.0339 36.0923C45.9832 36.0923 46.7526 35.3228 46.7526 34.3735C46.7526 33.4243 45.9832 32.6548 45.0339 32.6548H45.0327C44.0834 32.6548 43.3145 33.4243 43.3145 34.3735C43.3145 35.3228 44.0846 36.0923 45.0339 36.0923Z" fill="#605E5C"/>
<path d="M53.6272 36.0923C54.5764 36.0923 55.3459 35.3228 55.3459 34.3735C55.3459 33.4243 54.5764 32.6548 53.6272 32.6548H53.626C52.6767 32.6548 51.9077 33.4243 51.9077 34.3735C51.9077 35.3228 52.6779 36.0923 53.6272 36.0923Z" fill="#605E5C"/>
<path d="M62.2209 36.0923C63.1702 36.0923 63.9397 35.3228 63.9397 34.3735C63.9397 33.4243 63.1702 32.6548 62.2209 32.6548H62.2197C61.2704 32.6548 60.5015 33.4243 60.5015 34.3735C60.5015 35.3228 61.2716 36.0923 62.2209 36.0923Z" fill="#605E5C"/>
<path d="M83.8799 54.1693C83.6822 53.4784 83.3808 52.8313 82.9942 52.2454C86.273 46.8692 88.0004 40.7156 88.0004 34.3746C88.0004 15.421 72.5804 0.000976562 53.6268 0.000976562C44.5897 0.000976562 36.3558 3.50657 30.2138 9.22943C28.9198 7.99232 27.1775 7.27013 25.3475 7.27013C25.1375 7.27013 24.928 7.27941 24.7197 7.29797C22.8494 4.90815 19.9419 3.46446 16.8754 3.46446C11.9638 3.46446 7.87247 7.04327 7.07277 11.7306C4.18109 12.073 1.93117 14.5395 1.93117 17.5215C1.93117 20.737 4.53497 23.353 7.73566 23.353H21.0652C19.8905 26.8143 19.2532 30.5213 19.2532 34.3746C19.2532 41.3947 21.3686 47.93 24.9953 53.3766L2.21406 75.2085C2.2053 75.2169 2.19653 75.2255 2.18794 75.2341C-0.728662 78.1509 -0.728662 82.8967 2.18794 85.8134C3.64624 87.2717 5.56188 88.001 7.47752 88.001C9.39316 88.001 11.3088 87.2717 12.7671 85.8134C12.7757 85.8048 12.7843 85.7961 12.7927 85.7873L34.6239 63.0054C40.0709 66.6323 46.6064 68.748 53.6268 68.748C59.0193 68.748 64.1761 67.5363 68.9605 65.1458H82.4147C85.4946 65.1458 88.0004 62.64 88.0004 59.5601C88.0004 56.9869 86.2515 54.8145 83.8799 54.1693V54.1693ZM7.73584 19.9155C6.45267 19.9155 5.3687 18.8191 5.3687 17.5214C5.3687 16.2012 6.4427 15.1272 7.76282 15.1272H8.64983C9.59906 15.1272 10.3685 14.3578 10.3685 13.4086C10.3685 9.82065 13.2875 6.90165 16.8754 6.90165C19.1819 6.90165 21.2691 8.08393 22.4586 10.0645C22.8559 10.7261 23.6453 11.0418 24.389 10.8364C24.6995 10.7508 25.022 10.7073 25.3475 10.7073C26.2751 10.7073 27.1586 11.0706 27.8186 11.6938C25.6575 14.15 23.8407 16.9159 22.4441 19.9157H7.73584V19.9155ZM10.3249 83.3947C8.74745 84.9594 6.19109 84.9555 4.61867 83.3829C3.04607 81.8105 3.04212 79.2541 4.60681 77.6765L20.1791 62.7532L25.2478 67.822L10.3249 83.3947ZM27.6263 65.3395L22.6612 60.3742L27.0583 56.1604C28.4922 57.906 30.0945 59.5082 31.84 60.9423L27.6263 65.3395ZM22.6908 34.3744C22.6908 17.3162 36.5688 3.43816 53.627 3.43816C70.6852 3.43816 84.5632 17.3162 84.5632 34.3744C84.5632 39.8578 83.1288 45.1844 80.4002 49.8836C79.4159 49.3594 78.2967 49.0627 77.1174 49.0627C77.0368 49.0627 76.9564 49.0641 76.8761 49.0669C79.6609 44.6736 81.1259 39.6246 81.1259 34.3746C81.1259 19.2117 68.7899 6.87569 53.627 6.87569C49.1708 6.87569 44.7426 7.96843 40.8211 10.0358C39.9815 10.4786 39.6596 11.518 40.1022 12.3578C40.5447 13.1973 41.5844 13.5191 42.4241 13.0767C45.8532 11.2685 49.7271 10.3129 53.6268 10.3129C66.8943 10.3129 77.6883 21.1069 77.6883 34.3744C77.6883 38.851 76.4717 43.1599 74.1558 46.9328C72.5435 45.8605 70.6277 45.2572 68.6453 45.2572C63.7337 45.2572 59.6422 48.8362 58.8427 53.5234C56.2404 53.8314 54.1581 55.8596 53.7672 58.4359C53.7224 58.4359 53.6756 58.4359 53.627 58.4359C40.3595 58.4359 29.5655 47.6419 29.5655 34.3744C29.5655 30.4742 30.5209 26.6006 32.3284 23.1724C32.7712 22.3326 32.4494 21.2932 31.6097 20.8504C30.7701 20.4077 29.7305 20.7296 29.2877 21.5692C27.2207 25.4899 26.1279 29.9179 26.1279 34.3744C26.1279 49.5373 38.4638 61.8733 53.6268 61.8733C53.8805 61.8733 54.0905 61.8726 54.2885 61.8691C55.0409 63.4135 56.4532 64.5767 58.154 64.986C56.6689 65.202 55.1585 65.3106 53.627 65.3106C36.5686 65.3106 22.6908 51.4326 22.6908 34.3744V34.3744ZM82.4149 61.7084H59.5056C58.2224 61.7084 57.1384 60.6121 57.1384 59.3143C57.1384 57.9942 58.2124 56.9202 59.5325 56.9202H60.4196C61.3688 56.9202 62.1382 56.1507 62.1382 55.2015C62.1382 51.6136 65.0572 48.6946 68.6452 48.6946C70.9518 48.6946 73.0388 49.8769 74.2283 51.8573C74.6255 52.519 75.4149 52.8347 76.1587 52.6292C76.4694 52.5434 76.7919 52.5001 77.1172 52.5001C78.9878 52.5001 80.5618 53.9587 80.7008 55.8209C80.7677 56.7181 81.5151 57.4117 82.4147 57.4117C83.5994 57.4117 84.5631 58.3754 84.5631 59.5601C84.5631 60.7448 83.5994 61.7084 82.4149 61.7084V61.7084Z" fill="#605E5C"/>
<path d="M35.397 17.8633C36.3463 17.8633 37.1157 17.0938 37.1157 16.1445C37.1157 15.1953 36.3463 14.4258 35.397 14.4258H35.3958C34.4465 14.4258 33.6777 15.1953 33.6777 16.1445C33.6777 17.0938 34.4477 17.8633 35.397 17.8633V17.8633Z" fill="#605E5C"/>
</svg>
