<svg width="48" height="48" viewBox="0 0 48 48" fill="none" xmlns="http://www.w3.org/2000/svg">
<path d="M44.8035 17.0335L36.6578 8.88769C36.3959 8.62568 35.9712 8.62568 35.7091 8.88769L31.6362 12.9605C31.5105 13.0863 31.4399 13.2569 31.4399 13.4348C31.4399 13.6128 31.5105 13.7834 31.6362 13.9091L32.0425 14.3154L31.1089 15.249C30.5027 15.8548 29.5623 16.0202 28.7687 15.66C28.0247 15.3223 27.1975 15.1439 26.3766 15.1439C25.4018 15.1439 24.4492 15.3886 23.6028 15.8521C23.2498 15.7651 22.8875 15.7206 22.5217 15.7206C21.9926 15.7206 21.4729 15.8119 20.9771 15.9921C20.1854 16.2797 19.3368 16.1014 18.762 15.5268L17.0856 13.8502L17.2852 13.6506C17.411 13.5248 17.4816 13.3542 17.4816 13.1763C17.4816 12.9984 17.411 12.8277 17.2852 12.702L13.2124 8.62912C12.9503 8.36712 12.5257 8.36712 12.2637 8.62912L3.19644 17.6964C2.93452 17.9584 2.93452 18.383 3.19644 18.645L7.26921 22.7178C7.39505 22.8437 7.56559 22.9143 7.7436 22.9143C7.9216 22.9143 8.09207 22.8437 8.21798 22.7178L8.46088 22.4749L9.64328 23.6573C9.94162 23.9557 10.1394 24.3282 10.2151 24.7345C10.6077 26.8413 11.6167 28.7566 13.133 30.2737L13.3557 30.4964C12.928 30.9469 12.6927 31.5337 12.6927 32.1571C12.6927 32.802 12.9439 33.4083 13.3998 33.8643C13.8705 34.335 14.4886 34.5703 15.107 34.5703C15.1472 34.5703 15.1874 34.5692 15.2276 34.5671C15.195 35.2249 15.4293 35.8936 15.9305 36.395C16.3865 36.851 16.9928 37.1021 17.6376 37.1021C17.6556 37.1021 17.6735 37.1012 17.6914 37.1008C17.6777 37.7364 17.9122 38.3765 18.3962 38.8606C18.8522 39.3167 19.4585 39.5677 20.1034 39.5677C20.7482 39.5677 21.3545 39.3165 21.8106 38.8606C21.8489 38.8222 21.8851 38.7825 21.9205 38.7423C22.158 38.8251 22.4091 38.8691 22.663 38.8691C23.2662 38.8691 23.8329 38.6341 24.2578 38.2078C24.4839 37.9817 24.6556 37.7157 24.7673 37.4261L24.8359 37.4947C25.2756 37.9344 25.853 38.1542 26.4304 38.1542C27.0078 38.1542 27.5852 37.9344 28.0248 37.4947C28.2584 37.2611 28.434 36.9853 28.5452 36.6844C28.9387 36.9707 29.4046 37.114 29.8707 37.114C30.4481 37.114 31.0259 36.8942 31.4659 36.4548C31.8917 36.0289 32.1262 35.4624 32.1262 34.8597C32.1262 34.6776 32.1044 34.499 32.0628 34.3263C32.4924 34.239 32.8871 34.0281 33.2039 33.711C33.6297 33.2852 33.8642 32.7189 33.8642 32.1165C33.8642 31.642 33.718 31.1902 33.4481 30.8114L33.9862 30.2733C35.5201 28.7387 36.5334 26.7993 36.9168 24.6647C36.981 24.3073 37.158 23.9754 37.4289 23.7044L39.4303 21.703L39.7821 22.0548C39.9131 22.1858 40.0848 22.2513 40.2565 22.2513C40.4281 22.2513 40.5999 22.1858 40.7309 22.0548L44.8037 17.982C44.9295 17.8562 45.0001 17.6856 45.0001 17.5077C45.0001 17.3298 44.9292 17.1593 44.8035 17.0335ZM7.7436 21.295L4.61936 18.1707L12.7379 10.0522L15.8622 13.1764L7.7436 21.295ZM15.8654 32.9159C15.4473 33.3339 14.7669 33.334 14.3484 32.9159C14.1458 32.7132 14.0342 32.4438 14.0342 32.1573C14.0342 31.8709 14.1459 31.6015 14.3485 31.3988C14.5576 31.1898 14.8322 31.0852 15.1069 31.0852C15.3815 31.0852 15.6563 31.1898 15.8653 31.3988C16.2835 31.817 16.2835 32.4976 15.8654 32.9159ZM18.3959 35.4463C18.1935 35.649 17.9242 35.7605 17.6375 35.7605C17.351 35.7605 17.0816 35.6489 16.8791 35.4463C16.4608 35.0282 16.4608 34.3476 16.8791 33.9293C17.0882 33.7202 17.3627 33.6157 17.6375 33.6157C17.9121 33.6157 18.1869 33.7202 18.3959 33.9293C18.8143 34.3475 18.8143 35.0282 18.3959 35.4463ZM20.8616 37.912C20.659 38.1146 20.3897 38.2261 20.1032 38.2261C19.8167 38.2261 19.5473 38.1145 19.3448 37.912C18.9265 37.4938 18.9265 36.8132 19.3448 36.395C19.5539 36.1859 19.8284 36.0813 20.1032 36.0813C20.3778 36.0813 20.6526 36.1859 20.8616 36.395C21.2799 36.8132 21.2799 37.4938 20.8616 37.912ZM32.2548 32.7627C32.0823 32.9353 31.8531 33.0304 31.6093 33.0304C31.3655 33.0304 31.1362 32.9353 30.9634 32.7623L24.4559 26.2562C24.1937 25.9943 23.7691 25.9944 23.5072 26.2564C23.2454 26.5183 23.2454 26.9431 23.5074 27.205L30.517 34.2139C30.6895 34.3863 30.7844 34.6157 30.7844 34.8597C30.7844 35.1041 30.6894 35.3337 30.5173 35.5059C30.1607 35.8622 29.5808 35.8622 29.2248 35.5061L28.0422 34.3236C28.0357 34.3168 28.0293 34.3099 28.0224 34.3032C28.0205 34.3012 28.0183 34.2995 28.0162 34.2975L22.5802 28.8615C22.3182 28.5996 21.8936 28.5996 21.6316 28.8615C21.3696 29.1235 21.3696 29.5482 21.6316 29.8102L27.085 35.2635C27.2517 35.4344 27.3435 35.6605 27.3435 35.9003C27.3435 36.1443 27.2484 36.3736 27.076 36.5461C26.7201 36.9022 26.1407 36.9022 25.7846 36.5461L19.8713 30.6328C19.6092 30.3708 19.1847 30.3708 18.9226 30.6328C18.6606 30.8947 18.6606 31.3194 18.9226 31.5814L23.3059 35.9647C23.3071 35.9659 23.3081 35.9673 23.3094 35.9685C23.4818 36.1405 23.5766 36.3694 23.5766 36.6132C23.5766 36.857 23.4816 37.0864 23.3084 37.2596C23.1363 37.4322 22.9071 37.5272 22.6629 37.5272C22.6039 37.5272 22.5462 37.5212 22.4898 37.5105C22.5983 36.7794 22.372 36.0077 21.8104 35.446C21.3544 34.9901 20.7481 34.7389 20.1032 34.7389C20.0853 34.7389 20.0674 34.7398 20.0494 34.7402C20.0632 34.1046 19.8288 33.4645 19.3447 32.9804C18.8886 32.5245 18.2824 32.2733 17.6375 32.2733C17.5971 32.2733 17.557 32.2743 17.517 32.2763C17.5492 31.6189 17.3149 30.9508 16.814 30.4497C16.2041 29.84 15.3469 29.6258 14.5627 29.806L14.0817 29.325C12.7577 28.0005 11.8768 26.328 11.534 24.4885C11.4084 23.8147 11.0827 23.1992 10.592 22.7085L9.40957 21.526L16.1369 14.7986L17.8135 16.4752C18.4579 17.1196 19.3353 17.4645 20.234 17.4645C20.6364 17.4645 21.0434 17.3952 21.4354 17.2527C21.6256 17.1836 21.8222 17.134 22.0215 17.1025L17.8681 21.2559C17.3599 21.764 17.08 22.4396 17.08 23.1583C17.08 23.8769 17.3599 24.5525 17.868 25.0606C18.3925 25.5851 19.0812 25.8473 19.7703 25.8472C20.4592 25.8472 21.1482 25.5849 21.6727 25.0606L23.7588 22.9746L24.3234 23.5396C24.3236 23.5398 24.3237 23.5399 24.3238 23.54L24.3473 23.5635L24.3698 23.586C24.3699 23.5861 24.3701 23.5863 24.3703 23.5864L24.3707 23.5868C24.3771 23.5932 24.3835 23.5992 24.3898 23.6053L32.255 31.4705C32.4275 31.643 32.5224 31.8723 32.5224 32.1163C32.5224 32.3607 32.4275 32.59 32.2548 32.7627ZM36.4799 22.7559C36.0145 23.2214 35.7089 23.7996 35.5961 24.4278C35.2615 26.2915 34.3766 27.985 33.0373 29.3249L32.5219 29.8404L28.2783 25.5969C28.3705 25.6037 28.4631 25.6082 28.5564 25.6082C28.9861 25.6082 29.4258 25.5329 29.8635 25.3538C30.2064 25.2135 30.3706 24.8218 30.2303 24.479C30.09 24.1362 29.6987 23.9719 29.3555 24.1122C27.6291 24.8186 25.5593 22.8719 25.3289 22.6475C25.325 22.6437 25.3212 22.6401 25.3172 22.6364L25.2934 22.6127C25.2934 22.6126 25.2933 22.6126 25.2932 22.6125L25.2724 22.5918C25.2724 22.5917 25.2722 22.5916 25.272 22.5915L24.7073 22.0264L25.3477 21.386C25.6097 21.124 25.6097 20.6993 25.3477 20.4373C25.0857 20.1754 24.6611 20.1753 24.3991 20.4373L23.286 21.5504C23.2856 21.5508 23.2851 21.5513 23.2847 21.5517C23.2842 21.5521 23.2838 21.5526 23.2834 21.553L20.724 24.1123C20.1981 24.6382 19.3425 24.6381 18.8167 24.1123C18.562 23.8576 18.4217 23.5189 18.4217 23.1587C18.4217 22.7984 18.562 22.4597 18.8167 22.205L23.2343 17.7872C23.4801 17.5416 23.7532 17.3254 24.0468 17.1444C24.7443 16.7132 25.5499 16.4853 26.3766 16.4853C27.0076 16.4853 27.6431 16.6223 28.2143 16.8816C29.5139 17.4713 31.0584 17.1965 32.0576 16.1976L32.9913 15.2641L38.4816 20.7543L36.4799 22.7559ZM40.2562 20.6321L33.0592 13.435L36.1835 10.3108L43.3806 17.5079L40.2562 20.6321Z" fill="#605e5c" stroke="#605e5c" stroke-width="0.1"/>
<path d="M40.9315 18.6914C41.302 18.6914 41.6023 18.3911 41.6023 18.0206C41.6023 17.6502 41.302 17.3499 40.9315 17.3499C40.5611 17.3499 40.2607 17.6502 40.2607 18.0206C40.2607 18.3911 40.5611 18.6914 40.9315 18.6914Z" fill="#605e5c" stroke="#605e5c" stroke-width="0.1"/>
<path d="M7.39343 19.3542C7.76388 19.3542 8.06419 19.0539 8.06419 18.6835C8.06419 18.313 7.76388 18.0127 7.39343 18.0127C7.02297 18.0127 6.72266 18.313 6.72266 18.6835C6.72266 19.0539 7.02297 19.3542 7.39343 19.3542Z" fill="#605e5c" stroke="#605e5c" stroke-width="0.1"/>
</svg>
