<svg width="24" height="24" viewBox="0 0 24 24" fill="none" xmlns="http://www.w3.org/2000/svg">
<g clip-path="url(#clip0_25_732)">
<path d="M11.6493 2.45752L11.8784 2.81973C11.9153 2.79637 11.9582 2.78396 12.0019 2.78396C12.0456 2.78396 12.0884 2.79637 12.1253 2.81973L12.354 2.4582L12.1253 2.81973C12.1623 2.8431 12.1918 2.87647 12.2106 2.91596L12.2104 2.91601L12.2152 2.9254L15.0232 8.48869L15.124 8.68841L15.3455 8.71988L21.6429 9.61474L21.6437 9.61484C21.7384 9.62814 21.8139 9.69391 21.8458 9.80151C21.878 9.90991 21.853 10.0228 21.7704 10.1014L21.7701 10.1016L17.2419 14.4164L17.0757 14.5748L17.1154 14.8008L18.1826 20.8822V20.8825C18.2041 21.0044 18.1559 21.1037 18.0825 21.162C18.0106 21.2189 17.9252 21.2311 17.8411 21.188L12.1984 18.2876L12.0026 18.1868L11.8066 18.2875L6.1626 21.188C6.07855 21.2311 5.99316 21.2189 5.9214 21.1619C5.84855 21.1041 5.8002 21.0054 5.82074 20.8834L5.82118 20.8835L6.88832 14.8021L6.92799 14.576L6.7618 14.4176L2.23252 10.1031C2.23248 10.1031 2.23244 10.103 2.2324 10.103C2.15064 10.0249 2.12559 9.91221 2.15804 9.80328C2.19031 9.69498 2.26619 9.62932 2.36015 9.61611L2.36078 9.61603L8.65821 8.72117L8.87973 8.68968L8.98053 8.48994L11.7885 2.92537L11.7887 2.92543L11.7932 2.91596C11.8119 2.87647 11.8414 2.8431 11.8784 2.81973L11.6493 2.45752ZM11.9013 17.6305V17.6299C11.932 17.6141 11.9661 17.606 12.0006 17.606C12.0354 17.606 12.0696 17.6143 12.1005 17.6302L12.1011 17.6305L16.8402 20.0656L17.6072 20.4597L17.4582 19.6104L16.5659 14.5228L16.5656 14.5209C16.5569 14.4728 16.5603 14.4233 16.5753 14.3768C16.5901 14.3306 16.616 14.2889 16.6505 14.255C16.6509 14.2548 16.6512 14.2544 16.6515 14.2541L20.3853 10.6951L21.0256 10.0848L20.1499 9.96054L14.9439 9.22181C14.9434 9.22173 14.943 9.22165 14.9425 9.22158C14.9037 9.21547 14.8668 9.20016 14.8351 9.17691C14.8029 9.15336 14.777 9.12239 14.7595 9.08662V9.08661L14.7573 9.08212L12.3825 4.37898L11.9997 3.62089L11.6173 4.37914L9.24511 9.08228L9.2451 9.08227L9.24296 9.08663C9.22542 9.12239 9.19949 9.15336 9.16735 9.17691C9.13561 9.20017 9.09877 9.21549 9.05991 9.22158L3.85245 9.96184L2.97703 10.0863L3.61707 10.6964L7.3518 14.2563C7.38632 14.2901 7.41212 14.3318 7.42696 14.3777C7.44194 14.4242 7.44529 14.4735 7.43672 14.5215L7.4365 14.5228L6.54421 19.6104L6.39526 20.4597L7.16221 20.0656L11.9013 17.6305Z" stroke="#4EB6FF"/>
</g>
<defs>
<clipPath id="clip0_25_732">
<rect width="24" height="24" fill="white"/>
</clipPath>
</defs>
</svg>