<svg width="16" height="16" viewBox="0 0 16 16" fill="none" xmlns="http://www.w3.org/2000/svg">
<path d="M5.5 5.5C5.63261 5.5 5.75979 5.55268 5.85355 5.64645C5.94732 5.74021 6 5.86739 6 6V12C6 12.1326 5.94732 12.2598 5.85355 12.3536C5.75979 12.4473 5.63261 12.5 5.5 12.5C5.36739 12.5 5.24021 12.4473 5.14645 12.3536C5.05268 12.2598 5 12.1326 5 12V6C5 5.86739 5.05268 5.74021 5.14645 5.64645C5.24021 5.55268 5.36739 5.5 5.5 5.5ZM8 5.5C8.13261 5.5 8.25979 5.55268 8.35355 5.64645C8.44732 5.74021 8.5 5.86739 8.5 6V12C8.5 12.1326 8.44732 12.2598 8.35355 12.3536C8.25979 12.4473 8.13261 12.5 8 12.5C7.86739 12.5 7.74021 12.4473 7.64645 12.3536C7.55268 12.2598 7.5 12.1326 7.5 12V6C7.5 5.86739 7.55268 5.74021 7.64645 5.64645C7.74021 5.55268 7.86739 5.5 8 5.5ZM11 6C11 5.86739 10.9473 5.74021 10.8536 5.64645C10.7598 5.55268 10.6326 5.5 10.5 5.5C10.3674 5.5 10.2402 5.55268 10.1464 5.64645C10.0527 5.74021 10 5.86739 10 6V12C10 12.1326 10.0527 12.2598 10.1464 12.3536C10.2402 12.4473 10.3674 12.5 10.5 12.5C10.6326 12.5 10.7598 12.4473 10.8536 12.3536C10.9473 12.2598 11 12.1326 11 12V6Z" fill="#D83B01"/>
<path fill-rule="evenodd" clip-rule="evenodd" d="M15 3.2C15 3.4829 14.8865 3.75421 14.6846 3.95425C14.4826 4.15429 14.2087 4.26667 13.9231 4.26667H13.3846V13.8667C13.3846 14.4325 13.1577 14.9751 12.7538 15.3752C12.3498 15.7752 11.802 16 11.2308 16H4.76923C4.198 16 3.65016 15.7752 3.24623 15.3752C2.84231 14.9751 2.61538 14.4325 2.61538 13.8667V4.26667H2.07692C1.79131 4.26667 1.51739 4.15429 1.31542 3.95425C1.11346 3.75421 1 3.4829 1 3.2V2.13333C1 1.85044 1.11346 1.57912 1.31542 1.37909C1.51739 1.17905 1.79131 1.06667 2.07692 1.06667H5.84615C5.84615 0.783769 5.95962 0.512458 6.16158 0.312419C6.36354 0.112381 6.63746 0 6.92308 0L9.07692 0C9.36254 0 9.63646 0.112381 9.83842 0.312419C10.0404 0.512458 10.1538 0.783769 10.1538 1.06667H13.9231C14.2087 1.06667 14.4826 1.17905 14.6846 1.37909C14.8865 1.57912 15 1.85044 15 2.13333V3.2ZM3.81938 4.26667L3.69231 4.3296V13.8667C3.69231 14.1496 3.80577 14.4209 4.00773 14.6209C4.20969 14.821 4.48361 14.9333 4.76923 14.9333H11.2308C11.5164 14.9333 11.7903 14.821 11.9923 14.6209C12.1942 14.4209 12.3077 14.1496 12.3077 13.8667V4.3296L12.1806 4.26667H3.81938ZM2.07692 3.2V2.13333H13.9231V3.2H2.07692Z" fill="#D83B01"/>
</svg>
