<svg width="83" height="26" viewBox="0 0 83 26" fill="none" xmlns="http://www.w3.org/2000/svg">
<path d="M75.8093 24.6125L61.7988 3.41797H66.9434L80.9542 24.6125H75.8093Z" fill="#323130"/>
<path d="M17.6995 12.9953C17.6995 7.85792 13.7883 4.21999 8.86214 4.21999C3.98549 4.21999 0 7.85792 0 12.9953C0 18.1572 3.98549 21.7951 8.86214 21.7951C13.7636 21.7951 17.6995 18.1572 17.6995 12.9953ZM3.56466 12.9953C3.56466 9.50482 5.71831 7.31715 8.86214 7.31715C11.9812 7.31715 14.1349 9.50482 14.1349 12.9953C14.1349 16.4857 11.9812 18.7226 8.86214 18.7226C5.71831 18.7226 3.56466 16.4857 3.56466 12.9953Z" fill="#323130"/>
<path d="M20.6492 21.6231H24.1643V10.8322H26.5655V8.00541H24.1643V7.44005C24.1643 5.91605 24.7337 5.37528 26.417 5.42444V2.52393C22.5553 2.42561 20.6492 3.97419 20.6492 7.31715V8.00541H19.0897V10.8322H20.6492V21.6231Z" fill="#323130"/>
<path d="M29.1828 21.6231H32.6979V10.8322H35.0991V8.00541H32.6979V7.44005C32.6979 5.91605 33.2673 5.37528 34.9506 5.42444V2.52393C31.0889 2.42561 29.1828 3.97419 29.1828 7.31715V8.00541H27.6232V10.8322H29.1828V21.6231Z" fill="#323130"/>
<path d="M43.2366 10.611C45.0189 10.611 46.4547 11.7417 46.5042 13.536H39.9938C40.2661 11.6679 41.578 10.611 43.2366 10.611ZM49.7471 17.346H46.0091C45.5635 18.2555 44.7466 18.9929 43.2614 18.9929C41.5285 18.9929 40.1423 17.8622 39.969 15.8466H49.9946C50.0689 15.4042 50.0936 14.9617 50.0936 14.5193C50.0936 10.4635 47.2964 7.78418 43.3356 7.78418C39.2759 7.78418 36.4538 10.5126 36.4538 14.8142C36.4538 19.0913 39.3501 21.8443 43.3356 21.8443C46.727 21.8443 49.0044 19.8533 49.7471 17.346Z" fill="#323130"/>
<path d="M56.0889 14.8388C56.0889 12.2087 57.3266 11.4221 59.3812 11.4221H60.2972V7.80876C58.3911 7.80876 56.9553 8.71824 56.0889 10.1193V8.00541H52.6232V21.6231H56.0889V14.8388Z" fill="#323130"/>
<path d="M62.6055 21.9119C62.6233 21.1333 62.9281 19.9154 63.8222 18.0104C63.8609 17.9278 63.9373 17.8595 64.0131 17.8397C64.089 17.8199 64.148 17.8528 64.1608 17.922C64.2641 18.4278 64.6033 18.7595 65.0921 18.8326C65.1526 18.8465 65.2319 18.8122 65.293 18.7457C65.354 18.6792 65.3847 18.5937 65.3706 18.5293C65.2203 17.8397 65.0921 17.2763 65.3706 15.9176C65.7177 15.3743 68.3293 13.4186 70.1202 11.344C71.911 9.26931 73.5168 6.67917 74.8242 5.60011C74.8927 5.53081 74.9792 5.50219 75.0373 5.52958C75.0954 5.55697 75.1116 5.63396 75.0772 5.71932C74.7094 6.61143 74.421 7.50477 74.2169 8.38445C74.169 8.59578 74.287 8.7363 74.4804 8.69834C74.6738 8.66034 74.8694 8.45821 74.9173 8.24688C75.2462 6.86188 75.7827 5.44808 76.5048 4.06342C76.522 4.03076 76.5361 3.99753 76.547 3.96447C77.1678 3.39973 77.755 2.88624 78.2325 2.4769C79.3393 1.55567 80.4914 0.736126 81.668 0.0332031C77.2542 10.7769 70.1208 17.5313 63.007 22.5886L62.6055 21.9119Z" fill="#0096FF"/>
<path d="M81.6673 0.0320521C81.6545 0.0400574 81.6417 0.0474626 81.6288 0.0542375C80.1418 3.87288 77.924 7.62761 75.152 11.0192C72.347 14.4433 69.2361 17.5934 65.9152 20.3727C64.9877 21.176 64.0378 21.9364 63.0703 22.65L63.4773 23.2905C67.8147 23.3307 70.2428 21.0913 71.0029 20.2473C71.0562 20.1891 71.0857 20.1153 71.0796 20.0553C71.0736 19.9954 71.0331 19.9589 70.9743 19.9604C70.5266 19.9293 70.1624 19.7299 69.9324 19.3899C69.8986 19.3456 69.9026 19.2707 69.9428 19.1977C69.983 19.1248 70.0521 19.0671 70.1199 19.0496C71.3273 19.178 71.4641 19.178 72.285 19.0496C72.9381 18.4193 74.9538 16.5928 75.5688 15.9173L76.1161 15.238L76.9371 14.2869C77.6545 13.3478 78.4399 12.3444 79.0303 11.3434C79.0777 11.2638 79.0818 11.1801 79.0404 11.1352C78.9991 11.0904 78.9216 11.0944 78.8477 11.1452C78.5375 11.3524 78.2204 11.5287 77.902 11.671C77.7699 11.7341 77.6456 11.7224 77.578 11.6403C77.5105 11.5582 77.5105 11.419 77.5781 11.2774C77.6457 11.1359 77.7701 11.0145 77.9022 10.9614C78.6232 10.6085 79.3299 10.1234 79.9827 9.53289C80.0184 9.50406 80.0484 9.46595 80.0673 9.425C80.7799 7.98676 81.3149 6.52687 81.6542 5.09503C82.1583 2.5098 82.0151 0.475605 81.8697 0.0690761C81.8444 -0.00621227 81.7575 -0.0221172 81.6673 0.0320521Z" fill="#4EB6FF"/>
<path d="M58.1728 25.151C58.0581 25.2879 58.0068 25.4558 58.0424 25.5779C58.0781 25.6999 58.1938 25.7525 58.3366 25.7115C60.0461 25.2077 61.7869 24.3878 63.4771 23.2902C66.1383 21.5313 73.232 14.9833 76.572 9.44939C76.6902 9.25567 76.6793 9.05353 76.5468 8.98291C76.4143 8.91229 76.2039 8.99646 76.0612 9.17714C73.5816 12.3581 68.8114 17.8124 62.4232 22.0346C61.5935 22.5767 60.7507 23.0587 59.9029 23.4759C59.5402 23.6544 59.1918 23.934 58.9033 24.2781L58.1728 25.151Z" fill="#323130"/>
</svg>
