<svg width="16" height="16" viewBox="0 0 16 16" fill="none" xmlns="http://www.w3.org/2000/svg">
<g clip-path="url(#clip0_18569_151667)">
<path d="M2.86457 14.8508C2.78677 15.2942 3.22433 15.6413 3.61077 15.4427L8 13.1868L12.3892 15.4427C12.7757 15.6413 13.2132 15.2942 13.1354 14.8508L12.3057 10.1213L15.828 6.76462C16.1572 6.45092 15.9868 5.87737 15.5458 5.81472L10.6474 5.11885L8.46323 0.792305C8.26648 0.402565 7.73352 0.402565 7.53677 0.792305L5.35265 5.11885L0.454172 5.81472C0.0131827 5.87737 -0.157217 6.45092 0.171963 6.76462L3.69429 10.1213L2.86457 14.8508ZM7.76917 12.0826L4.08342 13.977L4.77767 10.0197C4.8104 9.83316 4.74886 9.64214 4.61493 9.5145L1.70809 6.7444L5.76039 6.16873C5.92791 6.14494 6.07418 6.03795 6.1532 5.88141L8 2.22308L9.8468 5.88141C9.92582 6.03795 10.0721 6.14494 10.2396 6.16873L14.2919 6.7444L11.3851 9.5145C11.2511 9.64214 11.1896 9.83316 11.2223 10.0197L11.9166 13.977L8.23083 12.0826C8.08523 12.0078 7.91476 12.0078 7.76917 12.0826Z" fill="#4EB6FF"/>
</g>
<defs>
<clipPath id="clip0_18569_151667">
<rect width="16" height="16" fill="white"/>
</clipPath>
</defs>
</svg>
